<?xml version="1.0" encoding="UTF-8" standalone="no"?>
<!-- Created with Inkscape (http://www.inkscape.org/) -->

<svg
   width="179.12563mm"
   height="134.66103mm"
   viewBox="0 0 179.12563 134.66103"
   version="1.1"
   id="svg1"
   xmlns="http://www.w3.org/2000/svg"
   xmlns:svg="http://www.w3.org/2000/svg">
  <defs
     id="defs1" />
  <g
     id="layer1"
     transform="translate(-4.7361451,-82.341741)">
    <path
       id="path1"
       style="color:#000000;fill:#000000;stroke-linecap:round;stroke-linejoin:round;stroke-miterlimit:0;stroke-dashoffset:0.442205;-inkscape-stroke:none;paint-order:markers fill stroke"
       d="m 12.837976,82.341744 a 8.1000004,8.1000004 0 0 0 -8.101831,8.099764 8.1000004,8.1000004 0 0 0 8.101831,8.101314 h 36.378658 l 22.373311,83.496198 c 2.119776,7.91111 8.397325,13.90656 16.083773,15.87603 a 13.126996,13.475961 0 0 0 -1.193209,5.61206 13.126996,13.475961 0 0 0 13.126848,13.47567 13.126996,13.475961 0 0 0 13.126843,-13.47567 13.126996,13.475961 0 0 0 -0.90898,-4.91753 h 28.89849 a 13.126996,13.475961 0 0 0 -0.93896,4.91753 13.126996,13.475961 0 0 0 13.12685,13.47567 13.126996,13.475961 0 0 0 13.12684,-13.47567 13.126996,13.475961 0 0 0 -0.90898,-4.91753 h 1.75131 a 8.1000004,8.1000004 0 0 0 8.09976,-8.09976 8.1000004,8.1000004 0 0 0 -8.09976,-8.09977 H 93.183459 c -2.825401,0 -5.214105,-1.83338 -5.945373,-4.56251 l -0.296106,-1.10536 96.35743,-17.97151 0.56224,-52.61436 a 1.7799461,1.978529 0 0 0 -1.77974,-2.00194 H 67.492004 L 63.256087,88.345512 a 8.1008104,8.1008104 0 0 0 -7.824328,-6.003768 z" />
  </g>
</svg>
