<?xml version="1.0" encoding="UTF-8" standalone="no"?>
<!-- Created with Inkscape (http://www.inkscape.org/) -->

<svg
   width="210mm"
   height="297mm"
   viewBox="0 0 210 297"
   version="1.1"
   id="svg1"
   inkscape:version="1.3.2 (091e20e, 2023-11-25, custom)"
   sodipodi:docname="Christmas tree.svg"
   xmlns:inkscape="http://www.inkscape.org/namespaces/inkscape"
   xmlns:sodipodi="http://sodipodi.sourceforge.net/DTD/sodipodi-0.dtd"
   xmlns="http://www.w3.org/2000/svg"
   xmlns:svg="http://www.w3.org/2000/svg">
  <sodipodi:namedview
     id="namedview1"
     pagecolor="#ffffff"
     bordercolor="#000000"
     borderopacity="0.25"
     inkscape:showpageshadow="2"
     inkscape:pageopacity="0.0"
     inkscape:pagecheckerboard="0"
     inkscape:deskcolor="#d1d1d1"
     inkscape:document-units="mm"
     showguides="true"
     inkscape:zoom="0.45344416"
     inkscape:cx="480.76482"
     inkscape:cy="605.36671"
     inkscape:window-width="1366"
     inkscape:window-height="705"
     inkscape:window-x="-8"
     inkscape:window-y="-8"
     inkscape:window-maximized="1"
     inkscape:current-layer="layer1" />
  <defs
     id="defs1" />
  <g
     inkscape:label="Layer 1"
     inkscape:groupmode="layer"
     id="layer1">
    <g
       id="g19"
       transform="matrix(0.90180209,0,0,1.0254023,-30.922606,-50.036682)">
      <rect
         style="opacity:1;fill:#784421;fill-opacity:1;stroke-width:0.383;stroke-miterlimit:0.9;stroke-dashoffset:0.442205;paint-order:markers fill stroke"
         id="rect9"
         width="18.566763"
         height="56.525478"
         x="93.659004"
         y="236.41676" />
      <rect
         style="opacity:1;fill:#2f1b0d;fill-opacity:1;stroke-width:0.270822;stroke-miterlimit:0.9;stroke-dashoffset:0.442205;paint-order:markers fill stroke"
         id="rect10"
         width="9.2833815"
         height="56.525478"
         x="102.94238"
         y="236.41676" />
      <path
         sodipodi:type="star"
         style="opacity:1;fill:#008000;fill-opacity:1;stroke-width:0.383;stroke-miterlimit:0.9;stroke-dashoffset:0.442205;paint-order:markers fill stroke"
         id="path6"
         inkscape:flatsided="true"
         sodipodi:sides="3"
         sodipodi:cx="57.182709"
         sodipodi:cy="36.760311"
         sodipodi:r1="84.171349"
         sodipodi:r2="42.085674"
         sodipodi:arg1="0.52258548"
         sodipodi:arg2="1.569783"
         inkscape:rounded="-2.5326963e-16"
         inkscape:randomized="0"
         d="M 130.11984,78.7721 -15.669135,78.919827 57.097418,-47.410994 Z"
         inkscape:transform-center-x="-0.036499511"
         inkscape:transform-center-y="-16.057775"
         transform="matrix(0.85591576,0,0,0.76444109,55.033695,205.36365)" />
      <path
         id="rect7"
         style="opacity:0.521898;fill:#000000;fill-opacity:1;stroke-width:0.525932;stroke-miterlimit:0.9;stroke-dashoffset:0.442205;paint-order:markers fill stroke"
         d="m 84.583928,198.04243 -13.437135,21.94776 7.876093,-0.60167 57.043944,-0.39372 -13.22317,-20.38396 z"
         sodipodi:nodetypes="cccccc" />
      <path
         sodipodi:type="star"
         style="opacity:1;fill:#008000;fill-opacity:1;stroke-width:0.383;stroke-miterlimit:0.9;stroke-dashoffset:0.442205;paint-order:markers fill stroke"
         id="path5"
         inkscape:flatsided="true"
         sodipodi:sides="3"
         sodipodi:cx="57.182709"
         sodipodi:cy="36.760311"
         sodipodi:r1="84.171349"
         sodipodi:r2="42.085674"
         sodipodi:arg1="0.52258548"
         sodipodi:arg2="1.569783"
         inkscape:rounded="-2.5326963e-16"
         inkscape:randomized="0"
         d="M 130.11984,78.7721 -15.669135,78.919827 57.097418,-47.410994 Z"
         inkscape:transform-center-x="-0.028477739"
         inkscape:transform-center-y="-14.214355"
         transform="matrix(0.66780578,0,0,0.67668385,64.230953,155.05239)" />
      <path
         id="rect6"
         style="opacity:0.470803;fill:#000000;fill-opacity:1;stroke-width:0.424775;stroke-miterlimit:0.9;stroke-dashoffset:0.442205;paint-order:markers fill stroke"
         d="m 90.423588,144.70745 -10.486591,17.69324 44.822693,0.10315 -9.70366,-17.48694 z"
         sodipodi:nodetypes="ccccc" />
      <path
         sodipodi:type="star"
         style="opacity:1;fill:#008000;fill-opacity:1;stroke-width:0.383;stroke-miterlimit:0.9;stroke-dashoffset:0.442205;paint-order:markers fill stroke"
         id="path4"
         inkscape:flatsided="true"
         sodipodi:sides="3"
         sodipodi:cx="57.182709"
         sodipodi:cy="36.760311"
         sodipodi:r1="84.171349"
         sodipodi:r2="42.085674"
         sodipodi:arg1="0.52258548"
         sodipodi:arg2="1.569783"
         inkscape:rounded="-2.5326963e-16"
         inkscape:randomized="0"
         d="M 130.11984,78.7721 -15.669135,78.919827 57.097418,-47.410994 Z"
         inkscape:transform-center-x="-0.021224144"
         inkscape:transform-center-y="-11.303695"
         transform="matrix(0.49770633,0,0,0.53811979,74.21949,111.72261)" />
      <path
         id="rect12"
         style="opacity:0.481752;fill:#000000;fill-opacity:1;stroke-width:0.50355;stroke-miterlimit:0.9;stroke-dashoffset:0.442205;paint-order:markers fill stroke"
         d="m 93.658883,265.60797 v 7.94215 h 18.566827 v -7.94215 z" />
      <circle
         style="opacity:0.481752;fill:#ff2a2a;fill-opacity:1;stroke-width:0.383;stroke-miterlimit:0.9;stroke-dashoffset:0.442205;paint-order:markers fill stroke"
         id="path13"
         cx="96.860512"
         cy="128.95285"
         r="8.1689587" />
      <circle
         style="opacity:0.844156;fill:#001880;fill-opacity:1;stroke-width:0.383;stroke-miterlimit:0.9;stroke-dashoffset:0.442205;paint-order:markers fill stroke"
         id="circle14"
         cx="84.023575"
         cy="183.21808"
         r="8.1689587" />
      <circle
         style="opacity:0.792208;fill:#d900e9;fill-opacity:1;stroke-width:0.383;stroke-miterlimit:0.9;stroke-dashoffset:0.442205;paint-order:markers fill stroke"
         id="circle15"
         cx="132.45383"
         cy="242.15128"
         r="8.1689587" />
      <circle
         style="opacity:1;fill:#501616;fill-opacity:1;stroke-width:0.383;stroke-miterlimit:0.9;stroke-dashoffset:0.442205;paint-order:markers fill stroke"
         id="circle16"
         cx="73.52063"
         cy="242.73477"
         r="8.1689587" />
      <circle
         style="opacity:0.481752;fill:#ff2a2a;fill-opacity:1;stroke-width:0.383;stroke-miterlimit:0.9;stroke-dashoffset:0.442205;paint-order:markers fill stroke"
         id="circle17"
         cx="116.11591"
         cy="179.13359"
         r="8.1689587" />
      <circle
         style="opacity:1;fill:#ff2a2a;fill-opacity:1;stroke-width:0.383;stroke-miterlimit:0.9;stroke-dashoffset:0.442205;paint-order:markers fill stroke"
         id="circle18"
         cx="99.194504"
         cy="228.73083"
         r="8.1689587" />
      <circle
         style="opacity:1;fill:#c83737;fill-opacity:1;stroke-width:0.383;stroke-miterlimit:0.9;stroke-dashoffset:0.442205;paint-order:markers fill stroke"
         id="circle19"
         cx="114.94892"
         cy="140.62279"
         r="8.1689587" />
    </g>
    <g
       id="g22"
       transform="translate(19.8389,22.172888)">
      <g
         id="g20"
         transform="translate(107.27463,-46.210609)">
        <rect
           style="opacity:1;fill:#803300;fill-opacity:1;stroke-width:0.383;stroke-miterlimit:0.9;stroke-dashoffset:0.442205;paint-order:markers fill stroke"
           id="rect19"
           width="21.58939"
           height="58.933205"
           x="27.424362"
           y="216.4774" />
        <rect
           style="opacity:1;fill:#4e1f00;fill-opacity:1;stroke-width:0.276257;stroke-miterlimit:0.9;stroke-dashoffset:0.442205;paint-order:markers fill stroke"
           id="rect20"
           width="11.232317"
           height="58.933205"
           x="37.781433"
           y="216.4774" />
      </g>
      <path
         id="path19"
         style="opacity:1;fill:#005d00;fill-opacity:1;stroke-width:0.383;stroke-miterlimit:0.9;stroke-dashoffset:0.442205;paint-order:markers fill stroke"
         inkscape:transform-center-x="1.7168353"
         inkscape:transform-center-y="-31.609889"
         d="m 72.456993,119.52488 -4.993474,9.15444 5.028987,2.07224 -6.33459,0.32123 -0.825997,1.51441 6.819289,2.88609 -8.127069,-0.48864 -6.548399,12.00554 10.564315,0.71892 -11.689706,1.34463 -0.468726,0.85912 15.89178,1.99622 -17.067245,0.15882 -7.340496,13.45727 17.618251,0.68108 -19.220188,2.25608 -5.919564,10.85238 23.116581,-0.63471 -24.756826,3.64198 -2.13029,3.90553 75.957844,-1.8425 -1.53898,-2.52193 -12.757371,-6.26467 10.727851,2.93778 -3.67784,-6.02755 -11.10554,-4.24537 9.10094,0.95977 -0.18583,-0.30436 -12.19242,-4.43715 10.30343,1.34106 -0.60787,-0.99603 -11.060344,-5.59897 9.35724,2.80778 -5.424506,-8.89057 -10.339952,-4.05553 8.353385,0.79958 -0.925528,-1.5169 -12.277429,-6.31393 10.330008,3.12203 -4.026542,-6.59906 -8.343085,-4.33276 5.107205,-0.9703 -3.064997,-5.02341 -4.081828,-1.81607 2.857931,-0.18994 z"
         transform="matrix(0.99943534,0.06611773,-0.1025403,2.8884058,90.31509,-338.3089)" />
      <path
         id="path20"
         style="opacity:1;fill:#003a00;fill-opacity:1;stroke:none;stroke-width:0.383;stroke-miterlimit:0.9;stroke-dashoffset:0.442205;paint-order:markers fill stroke"
         d="m 150.47505,11.718148 -0.51263,2.25671 -3.62613,187.847962 37.04011,-0.14572 -1.2795,-7.38612 -12.10779,-18.93838 10.42055,9.19479 -3.05769,-17.65318 -10.66395,-12.99663 8.99738,3.37396 -0.15451,-0.89142 -11.73055,-13.62243 10.1601,4.55477 -0.50539,-2.91714 -10.47998,-16.90336 9.06404,8.72867 -4.5098,-26.03821 -9.91826,-12.397691 8.26668,2.861841 -0.76946,-4.442623 -11.62306,-19.048967 10.00404,9.7007 -3.3476,-19.326985 -7.8941,-13.066386 5.20382,-2.464966 -2.54816,-14.71228 -3.89331,-5.515426 2.8758,-0.359668 z" />
      <path
         sodipodi:type="star"
         style="opacity:1;fill:#ff0000;fill-opacity:1;stroke:none;stroke-width:0.383;stroke-miterlimit:0.9;stroke-dashoffset:0.442205;paint-order:markers fill stroke"
         id="path21"
         inkscape:flatsided="false"
         sodipodi:sides="10"
         sodipodi:cx="30.925343"
         sodipodi:cy="184.96857"
         sodipodi:r1="19.050978"
         sodipodi:r2="8.5729446"
         sodipodi:arg1="0.69865982"
         sodipodi:arg2="1.0128191"
         inkscape:rounded="-2.5326963e-16"
         inkscape:randomized="0"
         d="m 45.512769,197.222 -10.048298,-4.98077 0.05996,11.21485 -5.20162,-9.93577 -6.543415,9.10824 1.631899,-11.09564 -10.647424,3.5226 7.842089,-8.01735 -10.68448,-3.40856 11.056867,-1.87671 -6.640428,-9.03776 10.048298,4.98077 -0.05996,-11.21485 5.20162,9.93577 6.543415,-9.10824 -1.631899,11.09564 10.647424,-3.5226 -7.842089,8.01736 10.684481,3.40855 -11.056868,1.87672 z"
         inkscape:transform-center-y="-1.0171186e-05"
         transform="rotate(97.260825,160.80766,156.8957)"
         inkscape:transform-center-x="-2.1367093e-05" />
      <path
         sodipodi:type="star"
         style="opacity:1;fill:#ffffff;fill-opacity:1;stroke:none;stroke-width:0.383;stroke-miterlimit:0.9;stroke-dashoffset:0.442205;paint-order:markers fill stroke"
         id="path22"
         inkscape:flatsided="false"
         sodipodi:sides="10"
         sodipodi:cx="34.426327"
         sodipodi:cy="239.81729"
         sodipodi:r1="24.206335"
         sodipodi:r2="21.140396"
         sodipodi:arg1="-1.3024301"
         sodipodi:arg2="1.0498623"
         inkscape:rounded="-2.5326963e-16"
         inkscape:randomized="0"
         d="m 40.844794,216.47741 4.102907,41.6761 8.390111,-33.4459 -21.177276,36.1283 26.44675,-22.12671 -38.368459,16.78072 34.401628,-2.35588 -40.904195,-8.97653 29.216254,18.31482 -27.815919,-31.30505 12.871265,31.98989 -4.102907,-41.6761 -8.390112,33.4459 21.177276,-36.1283 -26.446749,22.12672 38.368459,-16.78072 -34.401629,2.35588 40.904196,8.97652 -29.216255,-18.31482 27.815919,31.30505 z"
         transform="matrix(0.3726087,0,0,0.42499992,145.88364,89.464708)"
         inkscape:transform-center-x="5.5970958e-06" />
      <path
         sodipodi:type="star"
         style="fill:#ffffff;fill-opacity:1;stroke:none;stroke-width:0.383;stroke-miterlimit:0.9;stroke-dashoffset:0.442205;paint-order:markers fill stroke"
         id="path22-9"
         inkscape:flatsided="false"
         sodipodi:sides="10"
         sodipodi:cx="34.426327"
         sodipodi:cy="239.81729"
         sodipodi:r1="24.206335"
         sodipodi:r2="21.140396"
         sodipodi:arg1="-1.3024301"
         sodipodi:arg2="1.0498623"
         inkscape:rounded="-2.5326963e-16"
         inkscape:randomized="0"
         d="m 40.844794,216.47741 4.102907,41.6761 8.390111,-33.4459 -21.177276,36.1283 26.44675,-22.12671 -38.368459,16.78072 34.401628,-2.35588 -40.904195,-8.97653 29.216254,18.31482 -27.815919,-31.30505 12.871265,31.98989 -4.102907,-41.6761 -8.390112,33.4459 21.177276,-36.1283 -26.446749,22.12672 38.368459,-16.78072 -34.401629,2.35588 40.904196,8.97652 -29.216255,-18.31482 27.815919,31.30505 z"
         transform="matrix(0.3726087,0,0,0.42499992,118.42969,62.050867)"
         inkscape:transform-center-x="5.5970958e-06" />
      <path
         sodipodi:type="star"
         style="fill:#ffffff;fill-opacity:1;stroke:none;stroke-width:0.383;stroke-miterlimit:0.9;stroke-dashoffset:0.442205;paint-order:markers fill stroke"
         id="path22-9-7"
         inkscape:flatsided="false"
         sodipodi:sides="10"
         sodipodi:cx="34.426327"
         sodipodi:cy="239.81729"
         sodipodi:r1="24.206335"
         sodipodi:r2="21.140396"
         sodipodi:arg1="-1.3024301"
         sodipodi:arg2="1.0498623"
         inkscape:rounded="-2.5326963e-16"
         inkscape:randomized="0"
         d="m 40.844794,216.47741 4.102907,41.6761 8.390111,-33.4459 -21.177276,36.1283 26.44675,-22.12671 -38.368459,16.78072 34.401628,-2.35588 -40.904195,-8.97653 29.216254,18.31482 -27.815919,-31.30505 12.871265,31.98989 -4.102907,-41.6761 -8.390112,33.4459 21.177276,-36.1283 -26.446749,22.12672 38.368459,-16.78072 -34.401629,2.35588 40.904196,8.97652 -29.216255,-18.31482 27.815919,31.30505 z"
         transform="matrix(0.3726087,0,0,0.42499992,141.80007,43.421372)"
         inkscape:transform-center-x="5.5970958e-06" />
      <path
         sodipodi:type="star"
         style="fill:#ffffff;fill-opacity:1;stroke:none;stroke-width:0.383;stroke-miterlimit:0.9;stroke-dashoffset:0.442205;paint-order:markers fill stroke"
         id="path22-9-1"
         inkscape:flatsided="false"
         sodipodi:sides="10"
         sodipodi:cx="34.426327"
         sodipodi:cy="239.81729"
         sodipodi:r1="24.206335"
         sodipodi:r2="21.140396"
         sodipodi:arg1="-1.3024301"
         sodipodi:arg2="1.0498623"
         inkscape:rounded="-2.5326963e-16"
         inkscape:randomized="0"
         d="m 40.844794,216.47741 4.102907,41.6761 8.390111,-33.4459 -21.177276,36.1283 26.44675,-22.12671 -38.368459,16.78072 34.401628,-2.35588 -40.904195,-8.97653 29.216254,18.31482 -27.815919,-31.30505 12.871265,31.98989 -4.102907,-41.6761 -8.390112,33.4459 21.177276,-36.1283 -26.446749,22.12672 38.368459,-16.78072 -34.401629,2.35588 40.904196,8.97652 -29.216255,-18.31482 27.815919,31.30505 z"
         transform="matrix(0.3726087,0,0,0.42499992,121.42978,23.041387)"
         inkscape:transform-center-x="5.5970958e-06" />
      <path
         sodipodi:type="star"
         style="fill:#ffffff;fill-opacity:1;stroke:none;stroke-width:0.383;stroke-miterlimit:0.9;stroke-dashoffset:0.442205;paint-order:markers fill stroke"
         id="path22-9-5"
         inkscape:flatsided="false"
         sodipodi:sides="10"
         sodipodi:cx="34.426327"
         sodipodi:cy="239.81729"
         sodipodi:r1="24.206335"
         sodipodi:r2="21.140396"
         sodipodi:arg1="-1.3024301"
         sodipodi:arg2="1.0498623"
         inkscape:rounded="-2.5326963e-16"
         inkscape:randomized="0"
         d="m 40.844794,216.47741 4.102907,41.6761 8.390111,-33.4459 -21.177276,36.1283 26.44675,-22.12671 -38.368459,16.78072 34.401628,-2.35588 -40.904195,-8.97653 29.216254,18.31482 -27.815919,-31.30505 12.871265,31.98989 -4.102907,-41.6761 -8.390112,33.4459 21.177276,-36.1283 -26.446749,22.12672 38.368459,-16.78072 -34.401629,2.35588 40.904196,8.97652 -29.216255,-18.31482 27.815919,31.30505 z"
         transform="matrix(0.3726087,0,0,0.42499992,142.87254,11.895762)"
         inkscape:transform-center-x="5.5970958e-06" />
      <path
         sodipodi:type="star"
         style="fill:#ffffff;fill-opacity:1;stroke:none;stroke-width:0.383;stroke-miterlimit:0.9;stroke-dashoffset:0.442205;paint-order:markers fill stroke"
         id="path22-9-9"
         inkscape:flatsided="false"
         sodipodi:sides="10"
         sodipodi:cx="34.426327"
         sodipodi:cy="239.81729"
         sodipodi:r1="24.206335"
         sodipodi:r2="21.140396"
         sodipodi:arg1="-1.3024301"
         sodipodi:arg2="1.0498623"
         inkscape:rounded="-2.5326963e-16"
         inkscape:randomized="0"
         d="m 40.844794,216.47741 4.102907,41.6761 8.390111,-33.4459 -21.177276,36.1283 26.44675,-22.12671 -38.368459,16.78072 34.401628,-2.35588 -40.904195,-8.97653 29.216254,18.31482 -27.815919,-31.30505 12.871265,31.98989 -4.102907,-41.6761 -8.390112,33.4459 21.177276,-36.1283 -26.446749,22.12672 38.368459,-16.78072 -34.401629,2.35588 40.904196,8.97652 -29.216255,-18.31482 27.815919,31.30505 z"
         transform="matrix(0.3726087,0,0,0.42499992,138.25667,67.356257)"
         inkscape:transform-center-x="5.5970958e-06" />
      <path
         sodipodi:type="star"
         style="fill:#ffffff;fill-opacity:1;stroke:none;stroke-width:0.383;stroke-miterlimit:0.9;stroke-dashoffset:0.442205;paint-order:markers fill stroke"
         id="path22-9-0"
         inkscape:flatsided="false"
         sodipodi:sides="10"
         sodipodi:cx="34.426327"
         sodipodi:cy="239.81729"
         sodipodi:r1="24.206335"
         sodipodi:r2="21.140396"
         sodipodi:arg1="-1.3024301"
         sodipodi:arg2="1.0498623"
         inkscape:rounded="-2.5326963e-16"
         inkscape:randomized="0"
         d="m 40.844794,216.47741 4.102907,41.6761 8.390111,-33.4459 -21.177276,36.1283 26.44675,-22.12671 -38.368459,16.78072 34.401628,-2.35588 -40.904195,-8.97653 29.216254,18.31482 -27.815919,-31.30505 12.871265,31.98989 -4.102907,-41.6761 -8.390112,33.4459 21.177276,-36.1283 -26.446749,22.12672 38.368459,-16.78072 -34.401629,2.35588 40.904196,8.97652 -29.216255,-18.31482 27.815919,31.30505 z"
         transform="matrix(0.3726087,0,0,0.42499992,131.91374,-18.448716)"
         inkscape:transform-center-x="5.5970958e-06" />
    </g>
  </g>
</svg>
