<?xml version="1.0" encoding="UTF-8" standalone="no"?>
<!-- Created with Inkscape (http://www.inkscape.org/) -->

<svg
   width="1000mm"
   height="707mm"
   viewBox="0 0 1000 707"
   version="1.1"
   id="svg1"
   xmlns="http://www.w3.org/2000/svg"
   xmlns:svg="http://www.w3.org/2000/svg">
  <defs
     id="defs1">
    <linearGradient
       id="swatch4">
      <stop
         style="stop-color:#111111;stop-opacity:1;"
         offset="0"
         id="stop4" />
    </linearGradient>
  </defs>
  <g
     id="layer1">
    <path
       style="opacity:1;fill:#6fc135;fill-opacity:1;stroke:#112b00;stroke-width:0.343958;stroke-linecap:round;stroke-linejoin:round;stroke-miterlimit:0;stroke-dashoffset:0.442205;paint-order:markers fill stroke"
       d="M 137.49005,83.783 V 567.14646"
       id="path767" />
    <path
       id="path769"
       style="opacity:1;fill:none;fill-opacity:1;stroke:#00aad4;stroke-width:0.343958;stroke-linecap:round;stroke-linejoin:round;stroke-miterlimit:0;stroke-dashoffset:0.442205;paint-order:markers fill stroke"
       d="m 792.8193,109.63775 c -233.16586,21.56273 -319.34519,745.65781 1.8664,384.76874 m -1.88206,-376.04242 c -233.48855,17.34688 -331.58947,729.51391 -4.47516,379.22835 m 4.42897,-370.45224 C 559.0154,140.15836 449.01831,840.3559 781.9401,500.82917 m 10.738,-364.86256 c -233.92037,8.57542 -355.78601,696.76155 -17.16025,368.1507 M 792.56279,144.84376 C 558.54559,148.86147 424.84134,824.99397 769.0589,507.45721 M 792.40861,153.77183 C 558.38269,153.11641 412.87219,817.15289 762.56027,510.8491 M 792.2125,162.75079 c -233.93962,-5.4439 -391.22147,646.45417 -36.19366,351.54216 m 35.95248,-342.51254 c -233.75114,-10.34719 -402.7668,629.3703 -42.53994,346.0081 m 42.2504,-336.92836 C 558.22871,165.49606 377.5195,792.99123 742.79457,521.33524 M 791.34054,189.98921 C 558.30272,169.49644 365.94302,784.72824 736.10497,524.93231 M 790.94419,199.16643 C 558.44654,173.43581 354.48222,776.36413 729.35911,528.57856 M 790.48928,208.39033 C 558.66454,177.31607 343.14437,767.90204 722.55346,532.27246 M 789.97234,217.65902 C 558.96108,181.1396 331.9367,759.34593 715.6845,536.01208 M 789.38997,226.97021 C 559.3405,184.90929 320.8664,750.70058 708.74874,539.7951 M 788.73882,236.32121 C 559.80705,188.62857 309.94049,741.9717 701.74275,543.61875 m 86.2729,-297.90991 C 560.3648,192.30145 299.16574,733.1659 694.66325,547.4798 M 787.21742,255.1295 C 561.01762,195.93249 288.54858,724.29077 687.50712,551.37457 M 786.34129,264.57912 C 561.76911,199.52687 278.09493,715.35486 680.27146,555.2989 M 785.38473,274.05315 C 562.62247,203.09032 267.81014,706.36769 672.95369,559.24815 M 784.34551,283.54663 C 563.58052,206.62914 257.69884,697.3397 665.55154,563.21726 M 783.22185,293.05414 C 564.64552,210.15017 247.76482,688.28225 658.06317,567.2007 M 782.01238,302.5699 C 565.8192,213.66077 238.01091,679.20749 650.48722,571.19255 M 780.71628,312.08776 C 567.10261,217.16872 228.43886,670.12833 642.82282,575.18654 M 779.33328,321.60126 C 568.49608,220.68217 219.04925,661.0583 635.0697,579.1761 M 777.86369,331.10374 C 569.99922,224.20959 209.84138,652.01142 627.22819,583.15439 M 776.30849,340.58835 C 571.61079,227.75964 200.81324,643.00205 619.29928,587.11444 M 774.6693,350.04817 C 573.32874,231.34109 191.96141,634.04472 611.28462,591.04919 M 772.9484,359.47628 C 575.15018,234.9627 183.2811,625.15395 603.18656,594.95156 M 771.14875,368.86586 C 577.07137,238.63311 174.7661,616.34406 595.00809,598.8146 M 769.27394,378.21027 C 579.08774,242.36073 166.40888,607.62899 586.75289,602.63153 M 767.32818,387.50315 C 581.19398,246.15361 158.2006,599.02209 578.42527,606.39585 M 765.31625,396.7385 C 583.38404,250.01937 150.13123,590.53597 570.03008,610.10144 M 763.24342,405.91075 C 585.65122,253.96505 142.18969,582.18231 561.57273,613.74261 M 761.11541,415.01484 C 587.98828,257.99704 134.36397,573.97171 553.05905,617.3142 M 758.93832,424.04629 C 590.38752,262.12105 126.6413,565.91362 544.49526,620.81163 M 756.7185,433.00121 C 592.84088,266.34199 119.00833,558.01616 535.88785,624.23093 M 754.4625,441.87637 C 595.34005,270.66395 111.4513,550.28615 527.2435,627.5688 M 752.17697,450.66918 C 597.87663,275.0902 103.95625,542.72899 518.56901,630.82261 M 749.86858,459.37773 C 600.44216,279.62317 96.509201,535.34871 509.87118,633.9904 M 747.54393,468.00077 C 603.0283,284.26446 89.096292,528.14796 501.15674,637.07088 M 745.20946,476.53764 C 605.62686,289.01487 81.703987,521.12807 492.43229,640.06341 M 742.87141,484.98833 C 608.22996,293.87445 74.319195,514.28909 483.70418,642.96795 M 740.53574,493.35337 C 610.83004,298.84251 66.929405,507.62993 474.9785,645.78505 M 738.20809,501.63378 C 613.41997,303.91775 59.522786,501.1484 466.261,648.51575 M 735.89372,509.83106 C 615.99307,309.09828 52.08828,494.84138 457.55707,651.16159 M 733.59751,517.94711 C 618.54318,314.38169 44.615654,488.70487 448.87168,653.72451 M 731.32392,525.98418 C 621.06464,319.76514 37.095555,482.73417 440.20937,656.20679 M 729.07697,533.94481 C 623.55235,325.24541 29.519523,476.92394 431.57427,658.61103 m 295.286,-116.77928 C 626.00176,330.81901 21.880005,471.26838 422.97003,660.94005 M 724.67698,549.64796 C 628.40884,336.48218 14.170341,465.76129 414.39992,663.19687 M 722.52986,557.39654 C 630.77011,342.23103 6.3847466,460.3962 405.86673,665.38463 M 720.42127,565.08065 C 633.08259,348.06152 -1.4817217,455.16642 397.37287,667.50658 M 718.35318,572.70352 C 635.34377,353.96958 -9.4332071,450.0652 388.92035,669.56601 M 716.3272,580.26839 C 637.55161,359.95109 -17.473099,445.08573 380.51083,671.56624 M 714.34462,587.77849 C 639.70449,366.00198 -25.604084,440.22123 372.14561,673.51055 M 712.4064,595.237 C 641.80117,372.11821 -33.828201,435.46505 363.82569,675.40218 M 710.51324,602.64702 C 643.8408,378.29585 -42.146899,430.81063 355.55176,677.24432 M 708.66557,610.0116 C 645.8228,384.53105 -50.561085,426.25161 347.32426,679.04007 m 359.53933,-61.7064 C 647.74694,390.8201 -59.071188,421.78184 339.14342,680.79242 M 705.10729,624.61604 C 649.6132,397.15941 -67.677204,417.39539 331.00922,682.50424 m 372.38729,-50.6428 C 651.42183,403.54556 -76.378751,413.08656 322.92147,684.17832 M 701.7309,639.07244 C 653.17325,409.97528 -85.175116,408.84993 314.87984,685.81728 M 700.10998,646.25151 C 654.86806,416.44544 -94.065295,404.68034 306.88384,687.42364 M 698.53315,653.40097 C 656.50703,422.95309 -103.04804,400.57289 298.93285,688.99978 M 696.99972,660.52304 C 658.09102,429.49545 -112.12189,396.52296 291.02617,690.54795 M 695.50892,667.61978 C 659.62103,436.06987 -121.28521,392.52617 283.163,692.07027 m 410.89689,-17.3771 C 661.09813,442.67389 -130.53624,388.57843 275.34247,693.56874 M 692.65174,681.74503 C 662.52346,449.30516 -139.87306,384.67587 267.56368,695.04524 m 423.71983,-6.26816 C 663.89821,455.96153 -149.2937,380.81489 259.82565,696.50152 m 430.12859,-0.71058 c -24.73061,-233.15 -848.75035,-318.79883 -437.82686,2.14828"
       transform="translate(12.889693,-75.189873)" />
  </g>
</svg>
