<?xml version="1.0" encoding="UTF-8" standalone="no"?>
<!-- Created with Inkscape (http://www.inkscape.org/) -->

<svg
   width="963.7489mm"
   height="690.08789mm"
   viewBox="0 0 963.7489 690.08789"
   version="1.1"
   id="svg1"
   xmlns="http://www.w3.org/2000/svg"
   xmlns:svg="http://www.w3.org/2000/svg">
  <defs
     id="defs1">
    <linearGradient
       id="swatch4">
      <stop
         style="stop-color:#111111;stop-opacity:1;"
         offset="0"
         id="stop4" />
    </linearGradient>
    <filter
       style="color-interpolation-filters:sRGB"
       id="filter777"
       x="-0.0074282837"
       y="-0.039675758"
       width="1.0148566"
       height="1.0793515">
      <feColorMatrix
         in="SourceGraphic"
         values="1 0 0 0 0 0 1 0 0 0 0 0 1 0 0 -0.2125 -0.7154 -0.0721 1 0 "
         result="colormatrix"
         id="feColorMatrix776" />
      <feComposite
         in="SourceGraphic"
         in2="colormatrix"
         operator="arithmetic"
         k2="1"
         k3="1.09"
         k4="0"
         result="composite"
         id="feComposite776"
         k1="0" />
      <feGaussianBlur
         stdDeviation="2.9 0.01"
         result="blur1"
         id="feGaussianBlur776" />
      <feGaussianBlur
         in="composite"
         stdDeviation="0.01 10.6"
         result="blur2"
         id="feGaussianBlur777" />
      <feBlend
         in="blur2"
         in2="blur1"
         mode="darken"
         result="blend"
         id="feBlend777" />
    </filter>
  </defs>
  <g
     id="layer1"
     transform="translate(-14.077207,-21.338737)">
    <path
       id="path774"
       style="opacity:1;fill:#00222b;fill-opacity:1;stroke:#0044da;stroke-width:0.35;stroke-linecap:round;stroke-linejoin:round;stroke-miterlimit:0;stroke-dasharray:none;stroke-dashoffset:0.442205;stroke-opacity:1;paint-order:markers fill stroke;filter:url(#filter777)"
       d="M 135.02424,401.41797 977.8261,31.987538 M 142.2841,403.88837 971.38158,38.407381 M 149.54396,406.35877 964.93706,44.827224 M 156.80381,408.82917 958.49255,51.247067 M 164.06367,411.29956 952.04803,57.66691 M 171.32353,413.76996 945.60351,64.086753 M 178.58339,416.24036 939.15899,70.506596 M 185.84325,418.71076 932.71448,76.926439 M 193.1031,421.18116 926.26996,83.346282 M 200.36296,423.65156 919.82544,89.766125 M 207.62282,426.12195 913.38092,96.185969 M 214.88268,428.59235 906.93641,102.60581 M 222.14253,431.06275 900.49189,109.02565 M 229.40239,433.53315 894.04737,115.4455 M 236.66225,436.00355 887.60285,121.86534 M 243.92211,438.47395 881.15834,128.28518 M 251.18197,440.94434 874.71382,134.70503 M 258.44182,443.41474 868.2693,141.12487 M 265.70168,445.88514 861.82478,147.54471 M 272.96154,448.35554 855.38027,153.96456 M 280.2214,450.82594 848.93575,160.3844 M 287.48126,453.29634 842.49123,166.80424 M 294.74111,455.76673 836.04671,173.22409 M 302.00097,458.23713 829.6022,179.64393 M 309.26083,460.70753 823.15768,186.06377 M 316.52069,463.17793 816.71316,192.48361 M 323.78054,465.64833 810.26864,198.90346 M 331.0404,468.11873 803.82413,205.3233 M 338.30026,470.58912 797.37961,211.74314 M 345.56012,473.05952 790.93509,218.16299 M 352.81998,475.52992 784.49057,224.58283 M 360.07983,478.00032 778.04606,231.00267 M 367.33969,480.47072 771.60154,237.42252 M 374.59955,482.94112 765.15702,243.84236 M 381.85941,485.41152 758.7125,250.2622 M 389.11927,487.88191 752.26798,256.68204 M 396.37912,490.35231 745.82347,263.10189 M 403.63898,492.82271 739.37895,269.52173 M 410.89884,495.29311 732.93443,275.94157 M 418.1587,497.76351 726.48991,282.36142 M 425.41856,500.23391 720.0454,288.78126 M 432.67841,502.7043 713.60088,295.2011 M 439.93827,505.1747 707.15636,301.62095 M 447.19813,507.6451 700.71184,308.04079 M 454.45799,510.1155 694.26733,314.46063 M 461.71784,512.5859 687.82281,320.88048 M 468.9777,515.0563 681.37829,327.30032 M 476.23756,517.52669 674.93377,333.72016 M 483.49742,519.99709 668.48926,340.14 M 490.75728,522.46749 662.04474,346.55985 M 498.01713,524.93789 655.60022,352.97969 M 505.27699,527.40829 649.1557,359.39953 M 512.53685,529.87869 642.71119,365.81938 M 519.79671,532.34908 636.26667,372.23922 M 527.05657,534.81948 629.82215,378.65906 M 534.31642,537.28988 623.37763,385.07891 M 541.57628,539.76028 616.93312,391.49875 M 548.83614,542.23068 610.4886,397.91859 M 556.096,544.70108 604.04408,404.33843 m -40.68823,142.83304 34.24371,-136.41319 m -26.98385,138.88359 20.53934,-132.46375 m -13.27948,134.93415 6.83496,-128.51431 m 0.4249,130.98471 -6.86942,-124.56486 m 14.12928,127.03526 -20.5738,-120.61542 M 599.65514,559.52347 565.37698,442.85749 M 606.915,561.99386 558.93246,449.27734 m 55.2424,115.18692 -61.68692,-108.76708 m 68.94678,111.23748 -75.3913,-104.81764 M 628.69458,569.40506 539.5989,468.53687 m 96.35553,103.33859 -102.80004,-96.91875 m 110.0599,99.38915 -116.50442,-92.96931 m 123.76428,95.43971 -130.2088,-89.01987 m 137.46866,91.49026 -143.91318,-85.07041 m 151.17304,87.54081 -157.61755,-81.12097 m 164.8774,83.59137 -171.32192,-77.17153 m 178.58178,79.64193 -185.0263,-73.22208 m 192.28616,75.69248 -198.73068,-69.27264 m 205.99054,71.74304 -212.43505,-65.3232 m 219.6949,67.79359 -226.13942,-61.37374 m 233.39928,63.84414 -239.8438,-57.4243 m 247.10366,59.8947 -253.54818,-53.47486 m 260.80804,55.94526 -267.25255,-49.52541 m 274.51241,51.99581 -280.95693,-45.57597 m 288.21678,48.04637 -294.6613,-41.62653 M 744.8523,608.93143 436.48662,571.25435 M 752.11216,611.40183 430.04211,577.6742 m 329.32991,36.19803 -335.77443,-29.77819 m 343.03429,32.24859 -349.47881,-25.82875 m 356.73866,28.29915 -363.18318,-21.8793 m 370.44304,24.3497 -376.88755,-17.92986 M 788.41145,623.75382 397.81952,609.77341 M 795.67131,626.22422 391.375,616.19326 m 411.55616,12.50136 -418.00068,-6.08152 m 425.26054,8.55192 -431.70505,-2.13208 m 438.96491,4.60248 -445.40943,1.81736 m 452.66929,0.65304 -459.11381,5.76681 m 466.37367,-3.29642 -472.81819,9.71626 m 480.07804,-7.24586 -486.52255,13.6657 m 493.78241,-11.1953 -500.22693,17.61515 M 853.75017,645.98741 339.81886,667.552 m -204.79462,-266.13403 -0.1405,-1.51906 m 7.40036,3.98946 -3.13023,-6.50589 m 10.39009,8.97629 -6.11996,-11.49272 m 13.37981,13.96312 -9.10968,-16.47955 m 16.36954,18.94994 -12.09942,-21.46637 m 19.35928,23.93677 -15.08915,-26.4532 m 22.34901,28.9236 -18.07888,-31.44003 m 25.33874,33.91043 -21.06861,-36.42686 m 28.32846,38.89726 -24.05833,-41.4137 m 31.31819,43.8841 -27.04806,-46.40053 m 34.30792,48.87092 -30.0378,-51.38735 m 37.29766,53.85775 -33.02753,-56.37418 m 40.28738,58.84458 -36.01725,-61.36101 m 43.27711,63.83141 -39.00698,-66.34784 m 46.26684,68.81824 -41.99671,-71.33467 m 49.25657,73.80507 -44.98644,-76.3215 m 52.2463,78.79189 -47.97617,-81.30832 m 55.23602,83.77872 -50.9659,-86.29515 m 58.22576,88.76555 -53.95563,-91.28198 m 61.21549,93.75238 -56.94536,-96.26881 M 280.2214,450.82594 220.28631,349.5703 m 67.19495,103.72604 -62.92482,-106.24247 m 70.18467,108.71286 -65.91454,-111.2293 m 73.1744,113.6997 L 233.0967,342.021 M 309.26083,460.70753 237.36682,339.50457 M 316.52069,463.17793 241.63695,336.98814 M 323.78054,465.64833 245.90708,334.47171 M 331.0404,468.11873 250.17721,331.95528 m 88.12305,138.63384 -83.85292,-141.15027 m 91.11278,143.62067 -86.84265,-146.1371 m 94.10251,148.6075 -89.83239,-151.12393 M 360.07983,478.00032 267.25772,321.88956 M 367.33969,480.47072 271.52785,319.37313 M 374.59955,482.94112 275.79798,316.8567 M 381.85941,485.41152 280.06811,314.34027 M 389.11927,487.88191 284.33824,311.82384 M 396.37912,490.35231 288.60837,309.3074 M 403.63898,492.82271 292.87849,306.79097 M 410.89884,495.29311 297.14862,304.27454 M 418.1587,497.76351 301.41875,301.75811 M 425.41856,500.23391 305.68888,299.24168 M 432.67841,502.7043 309.95901,296.72525 M 439.93827,505.1747 314.22914,294.20882 M 447.19813,507.6451 318.49926,291.69239 M 454.45799,510.1155 322.76939,289.17596 M 461.71784,512.5859 327.03952,286.65953 M 468.9777,515.0563 331.30965,284.1431 M 476.23756,517.52669 335.57978,281.62667 M 483.49742,519.99709 339.84991,279.11024 M 490.75728,522.46749 344.12004,276.59381 M 498.01713,524.93789 348.39016,274.07737 M 505.27699,527.40829 352.66029,271.56094 M 512.53685,529.87869 356.93042,269.04451 M 519.79671,532.34908 361.20055,266.52808 M 527.05657,534.81948 365.47068,264.01165 M 534.31642,537.28988 369.74081,261.49522 M 541.57628,539.76028 374.01094,258.97879 M 548.83614,542.23068 378.28106,256.46236 M 556.096,544.70108 382.55119,253.94593 M 563.35585,547.17147 386.82132,251.4295 M 570.61571,549.64187 391.09145,248.91307 M 577.87557,552.11227 395.36158,246.39664 M 585.13543,554.58267 399.63171,243.88021 M 592.39529,557.05307 403.90183,241.36378 M 599.65514,559.52347 408.17196,238.84734 M 606.915,561.99386 412.44209,236.33091 M 614.17486,564.46426 416.71222,233.81448 M 621.43472,566.93466 420.98235,231.29805 M 628.69458,569.40506 425.25248,228.78162 M 635.95443,571.87546 429.52261,226.26519 M 643.21429,574.34586 433.79273,223.74876 M 650.47415,576.81626 438.06286,221.23233 M 657.73401,579.28665 442.33299,218.7159 M 664.99387,581.75705 446.60312,216.19947 M 672.25372,584.22745 450.87325,213.68304 M 679.51358,586.69785 455.14338,211.16661 M 686.77344,589.16825 459.4135,208.65018 M 694.0333,591.63865 463.68363,206.13375 M 701.29315,594.10904 467.95376,203.61731 M 708.55301,596.57944 472.22389,201.10088 M 715.81287,599.04984 476.49402,198.58445 M 723.07273,601.52024 480.76415,196.06802 M 730.33259,603.99064 485.03428,193.55159 M 737.59244,606.46104 489.3044,191.03516 M 744.8523,608.93143 493.57453,188.51873 M 752.11216,611.40183 497.84466,186.0023 M 759.37202,613.87223 502.11479,183.48587 M 766.63188,616.34263 506.38492,180.96944 M 773.89173,618.81303 510.65505,178.45301 M 781.15159,621.28343 514.92518,175.93658 M 788.41145,623.75382 519.1953,173.42015 M 795.67131,626.22422 523.46543,170.90372 M 802.93116,628.69462 527.73556,168.38728 M 810.19102,631.16502 532.00569,165.87085 M 817.45088,633.63542 536.27582,163.35442 M 824.71074,636.10582 540.54595,160.83799 M 831.9706,638.57621 544.81607,158.32156 M 839.23045,641.04661 549.0862,155.80513 M 846.49031,643.51701 553.35633,153.2887 M 853.75017,645.98741 557.62646,150.77227 M 135.02424,401.41797 14.077207,457.9364 M 142.2841,403.88837 20.000025,453.52632 M 149.54396,406.35877 25.922844,449.11625 M 156.80381,408.82917 31.845662,444.70617 M 164.06367,411.29956 37.768481,440.29609 M 171.32353,413.76996 43.691299,435.88601 M 178.58339,416.24036 49.614117,431.47594 M 185.84325,418.71076 55.536936,427.06586 M 193.1031,421.18116 61.459754,422.65578 M 200.36296,423.65156 67.382573,418.2457 M 207.62282,426.12195 73.305391,413.83563 M 214.88268,428.59235 79.22821,409.42555 M 222.14253,431.06275 85.151028,405.01547 M 229.40239,433.53315 91.073846,400.60539 M 236.66225,436.00355 96.996665,396.19532 M 243.92211,438.47395 102.91948,391.78524 m 148.26249,49.1591 -142.33967,-53.56918 m 149.59952,56.03958 -143.6767,-60.44966 m 150.93656,62.92006 -145.01374,-67.33013 m 152.2736,69.80053 -146.35078,-74.21061 M 280.2214,450.82594 132.53358,369.73485 M 287.48126,453.29634 138.45639,365.32477 M 294.74111,455.76673 144.37921,360.9147 M 302.00097,458.23713 150.30203,356.50462 M 309.26083,460.70753 156.22485,352.09454 M 316.52069,463.17793 162.14767,347.68446 M 323.78054,465.64833 168.07049,343.27439 M 331.0404,468.11873 173.9933,338.86431 M 338.30026,470.58912 179.91612,334.45423 M 345.56012,473.05952 185.83894,330.04416 M 352.81998,475.52992 191.76176,325.63408 M 360.07983,478.00032 197.68458,321.224 M 367.33969,480.47072 203.6074,316.81392 M 374.59955,482.94112 209.53021,312.40385 M 381.85941,485.41152 215.45303,307.99377 M 389.11927,487.88191 221.37585,303.58369 M 396.37912,490.35231 227.29867,299.17361 M 403.63898,492.82271 233.22149,294.76354 M 410.89884,495.29311 239.14431,290.35346 M 418.1587,497.76351 245.06713,285.94338 M 425.41856,500.23391 250.98994,281.5333 M 432.67841,502.7043 256.91276,277.12323 M 439.93827,505.1747 262.83558,272.71315 M 447.19813,507.6451 268.7584,268.30307 M 454.45799,510.1155 274.68122,263.89299 M 461.71784,512.5859 280.60404,259.48292 M 468.9777,515.0563 286.52685,255.07284 M 476.23756,517.52669 292.44967,250.66276 M 483.49742,519.99709 298.37249,246.25268 M 490.75728,522.46749 304.29531,241.84261 M 498.01713,524.93789 310.21813,237.43253 M 505.27699,527.40829 316.14095,233.02245 M 512.53685,529.87869 322.06376,228.61237 M 519.79671,532.34908 327.98658,224.2023 M 527.05657,534.81948 333.9094,219.79222 M 534.31642,537.28988 339.83222,215.38214 M 541.57628,539.76028 345.75504,210.97207 M 548.83614,542.23068 351.67786,206.56199 M 556.096,544.70108 357.60068,202.15191 M 563.35585,547.17147 363.52349,197.74183 M 570.61571,549.64187 369.44631,193.33176 M 577.87557,552.11227 375.36913,188.92168 M 585.13543,554.58267 381.29195,184.5116 M 592.39529,557.05307 387.21477,180.10152 M 599.65514,559.52347 393.13759,175.69145 M 606.915,561.99386 399.0604,171.28137 M 614.17486,564.46426 404.98322,166.87129 M 621.43472,566.93466 410.90604,162.46121 M 628.69458,569.40506 416.82886,158.05114 M 635.95443,571.87546 422.75168,153.64106 M 643.21429,574.34586 428.6745,149.23098 M 650.47415,576.81626 434.59731,144.8209 M 657.73401,579.28665 440.52013,140.41083 M 664.99387,581.75705 446.44295,136.00075 M 672.25372,584.22745 452.36577,131.59067 M 679.51358,586.69785 458.28859,127.18059 M 686.77344,589.16825 464.21141,122.77052 M 694.0333,591.63865 470.13422,118.36044 M 701.29315,594.10904 476.05704,113.95036 M 708.55301,596.57944 481.97986,109.54029 M 715.81287,599.04984 487.90268,105.13021 M 723.07273,601.52024 493.8255,100.72013 M 730.33259,603.99064 499.74832,96.310053 M 737.59244,606.46104 505.67114,91.899975 M 744.8523,608.93143 511.59395,87.489898 M 752.11216,611.40183 517.51677,83.079821 M 759.37202,613.87223 523.43959,78.669743 M 766.63188,616.34263 529.36241,74.259666 M 773.89173,618.81303 535.28523,69.849588 M 781.15159,621.28343 541.20805,65.439511 M 788.41145,623.75382 547.13086,61.029434 M 795.67131,626.22422 553.05368,56.619356 M 802.93116,628.69462 558.9765,52.209279 M 810.19102,631.16502 564.89932,47.799201 M 817.45088,633.63542 570.82214,43.389124 M 824.71074,636.10582 576.74496,38.979047 M 831.9706,638.57621 582.66777,34.568969 M 839.23045,641.04661 588.59059,30.158892 M 846.49031,643.51701 594.51341,25.748814 M 853.75017,645.98741 600.43623,21.338737 M 977.8261,31.987538 134.88374,399.89891 M 971.38158,38.407381 139.15387,397.38248 M 964.93706,44.827224 143.424,394.86605 M 958.49255,51.247067 147.69413,392.34962 M 952.04803,57.66691 151.96425,389.83319 M 945.60351,64.086753 156.23438,387.31676 M 939.15899,70.506596 160.50451,384.80033 M 932.71448,76.926439 164.77464,382.2839 M 926.26996,83.346282 169.04477,379.76746 M 919.82544,89.766125 173.3149,377.25103 M 913.38092,96.185969 177.58502,374.7346 M 906.93641,102.60581 181.85515,372.21817 M 900.49189,109.02565 186.12528,369.70174 M 894.04737,115.4455 190.39541,367.18531 M 887.60285,121.86534 194.66554,364.66888 M 881.15834,128.28518 198.93567,362.15245 M 874.71382,134.70503 203.2058,359.63602 M 868.2693,141.12487 207.47592,357.11959 M 861.82478,147.54471 211.74605,354.60316 M 855.38027,153.96456 216.01618,352.08673 M 848.93575,160.3844 220.28631,349.5703 M 842.49123,166.80424 224.55644,347.05387 M 836.04671,173.22409 228.82657,344.53743 M 829.6022,179.64393 233.0967,342.021 M 823.15768,186.06377 237.36682,339.50457 M 816.71316,192.48361 241.63695,336.98814 M 810.26864,198.90346 245.90708,334.47171 M 803.82413,205.3233 250.17721,331.95528 M 797.37961,211.74314 254.44734,329.43885 M 790.93509,218.16299 258.71747,326.92242 M 784.49057,224.58283 262.98759,324.40599 M 778.04606,231.00267 267.25772,321.88956 M 771.60154,237.42252 271.52785,319.37313 M 765.15702,243.84236 275.79798,316.8567 M 758.7125,250.2622 280.06811,314.34027 m 472.19987,-57.65823 -467.92974,55.1418 m 461.48523,-48.72195 -457.2151,46.20551 m 450.77058,-39.78567 -446.50046,37.26924 m 440.05594,-30.8494 -435.78581,28.33297 M 726.48991,282.36142 301.41875,301.75811 M 720.0454,288.78126 305.68888,299.24168 m 407.912,-4.04058 -403.64187,1.52415 m 397.19735,4.8957 -392.92722,-7.41213 m 386.4827,13.83197 -382.21258,-16.3484 M 694.26733,314.46063 322.76939,289.17596 M 687.82281,320.88048 327.03952,286.65953 M 681.37829,327.30032 331.30965,284.1431 M 674.93377,333.72016 335.57978,281.62667 M 668.48926,340.14 339.84991,279.11024 m 322.19483,67.44961 -317.9247,-69.96604 M 655.60022,352.97969 348.39016,274.07737 M 649.1557,359.39953 352.66029,271.56094 m 290.0509,94.25844 -285.78077,-96.77487 M 636.26667,372.23922 361.20055,266.52808 M 629.82215,378.65906 365.47068,264.01165 M 623.37763,385.07891 369.74081,261.49522 M 616.93312,391.49875 374.01094,258.97879 M 610.4886,397.91859 378.28106,256.46236 M 604.04408,404.33843 382.55119,253.94593 M 597.59956,410.75828 386.82132,251.4295 M 591.15505,417.17812 391.09145,248.91307 M 584.71053,423.59796 395.36158,246.39664 M 578.26601,430.01781 399.63171,243.88021 M 571.82149,436.43765 403.90183,241.36378 M 565.37698,442.85749 408.17196,238.84734 m 150.7605,210.43 L 412.44209,236.33091 M 552.48794,455.69718 416.71222,233.81448 M 546.04342,462.11702 420.98235,231.29805 M 539.5989,468.53687 425.25248,228.78162 M 533.15439,474.95671 429.52261,226.26519 M 526.70987,481.37655 433.79273,223.74876 M 520.26535,487.79639 438.06286,221.23233 M 513.82083,494.21624 442.33299,218.7159 m 65.04333,281.92018 -60.7732,-284.43661 M 500.9318,507.05592 450.87325,213.68304 m 43.61403,299.79273 -39.3439,-302.30916 m 32.89938,308.729 -28.62926,-311.24543 m 22.18475,317.66527 -17.91462,-320.1817 m 11.4701,326.60155 -7.19997,-329.11799 m 0.75545,335.53783 3.51468,-338.05426 m -9.9592,344.4741 14.22933,-346.99053 M 455.82018,551.99483 480.76415,196.06802 M 449.37566,558.41467 485.03428,193.55159 M 442.93114,564.83451 489.3044,191.03516 M 436.48662,571.25435 493.57453,188.51873 M 430.04211,577.6742 497.84466,186.0023 m -74.24707,398.09174 78.5172,-400.60817 m -84.96172,407.02801 89.23185,-409.54444 m -95.67637,415.96429 99.9465,-418.48072 M 404.26404,603.35357 514.92518,175.93658 M 397.81952,609.77341 519.1953,173.42015 M 391.375,616.19326 523.46543,170.90372 M 384.93048,622.6131 527.73556,168.38728 M 378.48597,629.03294 532.00569,165.87085 M 372.04145,635.45278 536.27582,163.35442 M 365.59693,641.87263 540.54595,160.83799 M 359.15241,648.29247 544.81607,158.32156 M 352.7079,654.71231 549.0862,155.80513 M 346.26338,661.13216 553.35633,153.2887 M 339.81886,667.552 557.62646,150.77227 M 977.8261,31.987538 14.077207,457.9364 M 971.38158,38.407381 20.000025,453.52632 M 964.93706,44.827224 25.922844,449.11625 M 958.49255,51.247067 31.845662,444.70617 M 952.04803,57.66691 37.768481,440.29609 M 945.60351,64.086753 43.691299,435.88601 M 939.15899,70.506596 49.614117,431.47594 M 932.71448,76.926439 55.536936,427.06586 M 926.26996,83.346282 61.459754,422.65578 M 919.82544,89.766125 67.382573,418.2457 M 913.38092,96.185969 73.305391,413.83563 M 906.93641,102.60581 79.22821,409.42555 M 900.49189,109.02565 85.151028,405.01547 M 894.04737,115.4455 91.073846,400.60539 M 887.60285,121.86534 96.996665,396.19532 M 881.15834,128.28518 102.91948,391.78524 M 874.71382,134.70503 108.8423,387.37516 M 868.2693,141.12487 114.76512,382.96508 M 861.82478,147.54471 120.68794,378.55501 M 855.38027,153.96456 126.61076,374.14493 M 848.93575,160.3844 132.53358,369.73485 M 842.49123,166.80424 138.45639,365.32477 M 836.04671,173.22409 144.37921,360.9147 M 829.6022,179.64393 150.30203,356.50462 M 823.15768,186.06377 156.22485,352.09454 M 816.71316,192.48361 162.14767,347.68446 M 810.26864,198.90346 168.07049,343.27439 M 803.82413,205.3233 173.9933,338.86431 M 797.37961,211.74314 179.91612,334.45423 M 790.93509,218.16299 185.83894,330.04416 M 784.49057,224.58283 191.76176,325.63408 M 778.04606,231.00267 197.68458,321.224 M 771.60154,237.42252 203.6074,316.81392 M 765.15702,243.84236 209.53021,312.40385 M 758.7125,250.2622 215.45303,307.99377 m 536.81495,-51.31173 -530.89213,46.90165 m 524.44762,-40.4818 -518.5248,36.07172 m 512.08028,-29.65188 -506.15746,25.24181 m 499.71294,-18.82197 -493.79012,14.41189 m 487.3456,-7.99204 -481.42278,3.58196 m 474.97827,2.83788 -469.05546,-7.24796 m 462.61094,13.6678 -456.68812,-18.07787 m 450.2436,24.49772 -444.32078,-28.9078 M 700.71184,308.04079 268.7584,268.30307 m 425.50893,46.15756 -419.58611,-50.56764 m 413.14159,56.98749 -407.21877,-61.39756 m 400.77425,67.8174 -394.85144,-72.22748 m 388.40692,78.64732 -382.4841,-83.0574 M 668.48926,340.14 298.37249,246.25268 M 662.04474,346.55985 304.29531,241.84261 M 655.60022,352.97969 310.21813,237.43253 M 649.1557,359.39953 316.14095,233.02245 M 642.71119,365.81938 322.06376,228.61237 M 636.26667,372.23922 327.98658,224.2023 M 629.82215,378.65906 333.9094,219.79222 M 623.37763,385.07891 339.83222,215.38214 M 616.93312,391.49875 345.75504,210.97207 M 610.4886,397.91859 351.67786,206.56199 M 604.04408,404.33843 357.60068,202.15191 M 597.59956,410.75828 363.52349,197.74183 M 591.15505,417.17812 369.44631,193.33176 M 584.71053,423.59796 375.36913,188.92168 M 578.26601,430.01781 381.29195,184.5116 M 571.82149,436.43765 387.21477,180.10152 M 565.37698,442.85749 393.13759,175.69145 M 558.93246,449.27734 399.0604,171.28137 M 552.48794,455.69718 404.98322,166.87129 M 546.04342,462.11702 410.90604,162.46121 M 539.5989,468.53687 416.82886,158.05114 M 533.15439,474.95671 422.75168,153.64106 M 526.70987,481.37655 428.6745,149.23098 M 520.26535,487.79639 434.59731,144.8209 m 79.22352,349.39534 -73.3007,-353.80541 M 507.37632,500.63608 446.44295,136.00075 M 500.9318,507.05592 452.36577,131.59067 m 42.12151,381.8851 -36.19869,-386.29518 m 29.75417,392.71502 -23.83135,-397.12509 m 17.38684,403.54493 -11.46403,-407.95501 m 5.01951,414.37486 0.90331,-418.78494 m -7.34783,425.20478 13.27065,-429.61485 m -19.71517,436.03469 25.63799,-440.44477 m -32.0825,446.86462 38.00532,-451.2747 M 449.37566,558.41467 499.74832,96.310053 m -56.81718,468.524457 62.74,-472.934535 M 436.48662,571.25435 511.59395,87.489898 M 430.04211,577.6742 517.51677,83.079821 M 423.59759,584.09404 523.43959,78.669743 M 417.15307,590.51388 529.36241,74.259666 M 410.70855,596.93373 535.28523,69.849588 M 404.26404,603.35357 541.20805,65.439511 M 397.81952,609.77341 547.13086,61.029434 M 391.375,616.19326 553.05368,56.619356 M 384.93048,622.6131 558.9765,52.209279 M 378.48597,629.03294 564.89932,47.799201 M 372.04145,635.45278 570.82214,43.389124 M 365.59693,641.87263 576.74496,38.979047 M 359.15241,648.29247 582.66777,34.568969 M 352.7079,654.71231 588.59059,30.158892 M 346.26338,661.13216 594.51341,25.748814 M 339.81886,667.552 600.43623,21.338737 M 134.88374,399.89891 14.077207,457.9364 M 139.15387,397.38248 20.000025,453.52632 M 143.424,394.86605 25.922844,449.11625 M 147.69413,392.34962 31.845662,444.70617 M 151.96425,389.83319 37.768481,440.29609 M 156.23438,387.31676 43.691299,435.88601 M 160.50451,384.80033 49.614117,431.47594 M 164.77464,382.2839 55.536936,427.06586 M 169.04477,379.76746 61.459754,422.65578 M 173.3149,377.25103 67.382573,418.2457 M 177.58502,374.7346 73.305391,413.83563 M 181.85515,372.21817 79.22821,409.42555 M 186.12528,369.70174 85.151028,405.01547 M 190.39541,367.18531 91.073846,400.60539 M 194.66554,364.66888 96.996665,396.19532 m 101.939005,-34.04287 -96.01619,29.63279 m 100.28632,-32.14922 -94.3635,27.73914 m 98.63362,-30.25557 -92.7108,25.84549 m 96.98093,-28.36192 -91.05811,23.95185 m 95.32824,-26.46828 -89.40542,22.0582 m 93.67555,-24.57463 -87.75273,20.16455 m 92.02286,-22.68098 -86.10005,18.2709 m 90.37018,-20.78734 -84.44736,16.37727 m 88.71749,-18.8937 -82.79467,14.48362 m 87.06479,-17.00005 -81.14197,12.58997 m 85.4121,-15.1064 -79.48928,10.69632 m 83.75941,-13.21275 -77.83659,8.80268 m 82.10672,-11.31911 -76.18391,6.90903 m 80.45404,-9.42546 -74.53122,5.01538 m 78.80135,-7.53181 -72.87853,3.12174 m 77.14865,-5.63817 -71.22583,1.22809 m 75.49596,-3.74452 -69.57314,-0.66556 m 73.84327,-1.85087 -67.92045,-2.55921 m 72.19058,0.0428 -66.26777,-4.45285 m 70.5379,1.93642 -64.61508,-6.3465 m 68.88521,3.83007 -62.96239,-8.24015 m 67.23252,5.72371 -61.3097,-10.13379 m 65.57982,7.61736 -59.657,-12.02743 m 63.92713,9.511 -58.00431,-13.92108 m 62.27444,11.40465 -56.35162,-15.81473 m 60.62175,13.2983 -54.69894,-17.70838 m 58.96907,15.19195 -53.04625,-19.60202 m 57.31638,17.08559 -51.39356,-21.49567 m 55.66368,18.97924 -49.74086,-23.38932 m 54.01099,20.87289 -48.08817,-25.28297 m 52.3583,22.76654 -46.43548,-27.17661 m 50.70561,24.66018 -44.7828,-29.07026 m 49.05293,26.55383 -43.13011,-30.96391 m 47.40024,28.44748 -41.47742,-32.85756 m 45.74755,30.34113 -39.82473,-34.7512 m 44.09485,32.23476 -38.17203,-36.64484 m 42.44216,34.12841 -36.51934,-38.53849 m 40.78947,36.02206 -34.86666,-40.43214 m 39.13679,37.91571 -33.21397,-42.32578 m 37.4841,39.80935 -31.56128,-44.21943 m 35.83141,41.703 -29.90859,-46.11308 m 34.17872,43.59665 -28.2559,-48.00672 m 32.52602,45.49029 -26.6032,-49.90037 m 30.87333,47.38394 -24.95051,-51.79402 m 29.22064,49.27759 -23.29783,-53.68767 m 27.56796,51.17124 -21.64514,-55.58131 m 25.91527,53.06488 -19.99245,-57.47496 m 24.26258,54.95853 -18.33976,-59.36861 m 22.60988,56.85218 -16.68706,-61.26226 m 20.95719,58.74582 -15.03437,-63.15589 m 19.3045,60.63946 -13.38169,-65.04954 m 17.65182,62.53311 -11.729,-66.94319 m 15.99913,64.42676 -10.07631,-68.83684 m 14.34644,66.32041 -8.42362,-70.73048 m 12.69375,68.21405 -6.77093,-72.62413 m 11.04105,70.1077 -5.11823,-74.51778 m 9.38836,72.00135 -3.46555,-76.41143 m 7.73568,73.895 -1.81286,-78.30507 m 6.08299,75.78864 -0.16017,-80.19872 m 4.4303,77.68229 1.49252,-82.09237 m 2.77761,79.57594 3.14521,-83.98602 m 1.12491,81.46959 4.79791,-85.87966 m -0.52778,83.36323 6.45059,-87.77331 m -2.18046,85.25687 8.10328,-89.66695 m -3.83315,87.15052 9.75597,-91.56059 m -5.48584,89.04416 11.40866,-93.45424 m -7.13853,90.93781 13.06135,-95.34789 m -8.79122,92.83146 14.71404,-97.241537 M 489.3044,191.03516 505.67114,91.899975 M 493.57453,188.51873 511.59395,87.489898 M 497.84466,186.0023 517.51677,83.079821 M 502.11479,183.48587 523.43959,78.669743 M 506.38492,180.96944 529.36241,74.259666 M 510.65505,178.45301 535.28523,69.849588 M 514.92518,175.93658 541.20805,65.439511 M 519.1953,173.42015 547.13086,61.029434 M 523.46543,170.90372 553.05368,56.619356 M 527.73556,168.38728 558.9765,52.209279 M 532.00569,165.87085 564.89932,47.799201 M 536.27582,163.35442 570.82214,43.389124 M 540.54595,160.83799 576.74496,38.979047 M 544.81607,158.32156 582.66777,34.568969 M 549.0862,155.80513 588.59059,30.158892 M 553.35633,153.2887 594.51341,25.748814 M 557.62646,150.77227 600.43623,21.338737" />
    <path
       style="opacity:1;fill:#6fc135;fill-opacity:1;stroke:#112b00;stroke-width:0.343958;stroke-linecap:round;stroke-linejoin:round;stroke-miterlimit:0;stroke-dashoffset:0.442205;paint-order:markers fill stroke"
       d="M 137.49005,83.783 V 567.14646"
       id="path767" />
    <path
       id="path772"
       style="opacity:1;fill:none;fill-opacity:1;stroke:#ffffff;stroke-width:0.2;stroke-linecap:round;stroke-linejoin:round;stroke-miterlimit:0;stroke-dasharray:none;stroke-dashoffset:0.442205;paint-order:markers fill stroke"
       d="M 135.02424,401.41797 977.8261,31.987538 M 145.44056,404.96245 968.57962,41.198617 M 155.85688,408.50694 959.33314,50.409696 M 166.27319,412.05142 950.08665,59.620775 M 176.68951,415.59591 940.84017,68.831855 M 187.10583,419.14039 931.59369,78.042934 M 197.52215,422.68488 922.34721,87.254013 M 207.93846,426.22936 913.10073,96.465092 M 218.35478,429.77385 903.85425,105.67617 M 228.7711,433.31833 894.60776,114.88725 M 239.18742,436.86282 885.36128,124.09833 M 249.60374,440.4073 876.1148,133.30941 M 260.02005,443.95179 866.86832,142.52049 M 270.43637,447.49627 857.62184,151.73157 M 280.85269,451.04075 848.37536,160.94265 M 291.26901,454.58524 839.12887,170.15373 M 301.68533,458.12972 829.88239,179.3648 M 312.10164,461.67421 820.63591,188.57588 M 322.51796,465.21869 811.38943,197.78696 M 332.93428,468.76318 802.14295,206.99804 M 343.3506,472.30766 792.89647,216.20912 M 353.76691,475.85215 783.64998,225.4202 M 364.18323,479.39663 774.4035,234.63128 M 374.59955,482.94112 765.15702,243.84236 M 385.01587,486.4856 755.91054,253.05344 M 395.43219,490.03009 746.66406,262.26452 M 405.8485,493.57457 737.41757,271.4756 M 416.26482,497.11906 728.17109,280.68668 M 426.68114,500.66354 718.92461,289.89775 M 437.09746,504.20802 709.67813,299.10883 M 447.51377,507.75251 700.43165,308.31991 M 457.93009,511.29699 691.18517,317.53099 M 468.34641,514.84148 681.93868,326.74207 M 478.76273,518.38596 672.6922,335.95315 M 489.17905,521.93045 663.44572,345.16423 M 499.59536,525.47493 654.19924,354.37531 M 510.01168,529.01942 644.95276,363.58639 M 520.428,532.5639 635.70628,372.79747 M 530.84432,536.10839 626.45979,382.00855 M 541.26064,539.65287 617.21331,391.21963 M 551.67695,543.19736 607.96683,400.4307 m -45.87356,146.31114 36.62708,-137.10006 m -26.21076,140.64454 16.96428,-131.43346 m -6.54796,134.97795 -2.69852,-125.76687 M 593.34222,557.37529 570.9809,437.27502 M 603.75854,560.91978 561.73442,446.4861 M 614.17486,564.46426 552.48794,455.69718 M 624.59118,568.00875 543.24146,464.90826 M 635.0075,571.55323 533.99498,474.11934 M 645.42381,575.09772 524.74849,483.33042 M 655.84013,578.6422 515.50201,492.5415 M 666.25645,582.18669 506.25553,501.75258 M 676.67277,585.73117 497.00905,510.96365 M 687.08908,589.27566 487.76257,520.17473 M 697.5054,592.82014 478.51609,529.38581 M 707.92172,596.36463 469.2696,538.59689 M 718.33804,599.90911 460.02312,547.80797 M 728.75436,603.45359 450.77664,557.01905 M 739.17067,606.99808 441.53016,566.23013 M 749.58699,610.54256 432.28368,575.44121 M 760.00331,614.08705 423.0372,584.65229 M 770.41963,617.63153 413.79071,593.86337 M 780.83595,621.17602 404.54423,603.07445 M 791.25226,624.7205 395.29775,612.28553 m 406.37083,15.97946 -415.61731,-6.76839 m 426.03363,10.31287 -435.28011,-1.10179 m 445.69643,4.64628 -454.94291,4.5648 m 465.35922,-1.02032 -474.60571,10.2314 m 485.02203,-6.68691 -494.26851,15.89799 M 853.75017,645.98741 339.81886,667.552 m -204.79462,-266.13403 -0.1405,-1.51906 m 10.55682,5.06354 -4.43011,-8.67407 m 14.84643,12.21856 -8.71973,-15.82909 m 19.13604,19.37357 -13.00933,-22.9841 m 23.42565,26.52859 -17.29895,-30.13912 m 27.71527,33.6836 -21.58856,-37.29414 m 32.00488,40.83863 -25.87817,-44.44916 m 36.29448,47.99364 -30.16778,-51.60417 m 40.5841,55.14866 -34.45739,-58.75919 m 44.87371,62.30367 -38.74701,-65.9142 m 49.16333,69.45869 -43.03662,-73.06922 m 53.45294,76.6137 -47.32623,-80.22423 m 57.74254,83.76872 -51.61584,-87.37925 m 62.03216,90.92373 -55.90545,-94.53426 m 66.32177,98.07874 -60.19506,-101.68927 m 70.61138,105.23376 -64.48468,-108.8443 m 74.901,112.38878 -68.77429,-115.99931 m 79.1906,119.5438 -73.0639,-123.15433 M 322.51796,465.21869 245.16445,334.90935 M 332.93428,468.76318 251.29116,331.29882 M 343.3506,472.30766 257.41786,327.68829 M 353.76691,475.85215 263.54457,324.07776 M 364.18323,479.39663 269.67127,320.46723 M 374.59955,482.94112 275.79798,316.8567 M 385.01587,486.4856 281.92469,313.24617 M 395.43219,490.03009 288.05139,309.63563 M 405.8485,493.57457 294.1781,306.0251 M 416.26482,497.11906 300.3048,302.41457 M 426.68114,500.66354 306.43151,298.80404 M 437.09746,504.20802 312.55822,295.19351 M 447.51377,507.75251 318.68492,291.58298 M 457.93009,511.29699 324.81163,287.97245 M 468.34641,514.84148 330.93833,284.36192 M 478.76273,518.38596 337.06504,280.75139 M 489.17905,521.93045 343.19175,277.14086 M 499.59536,525.47493 349.31845,273.53032 M 510.01168,529.01942 355.44516,269.91979 M 520.428,532.5639 361.57187,266.30926 M 530.84432,536.10839 367.69857,262.69873 M 541.26064,539.65287 373.82528,259.0882 M 551.67695,543.19736 379.95198,255.47767 M 562.09327,546.74184 386.07869,251.86714 M 572.50959,550.28632 392.2054,248.25661 M 582.92591,553.83081 398.3321,244.64608 M 593.34222,557.37529 404.45881,241.03555 M 603.75854,560.91978 410.58551,237.42501 M 614.17486,564.46426 416.71222,233.81448 M 624.59118,568.00875 422.83893,230.20395 M 635.0075,571.55323 428.96563,226.59342 M 645.42381,575.09772 435.09234,222.98289 M 655.84013,578.6422 441.21904,219.37236 M 666.25645,582.18669 447.34575,215.76183 M 676.67277,585.73117 453.47246,212.1513 M 687.08908,589.27566 459.59916,208.54077 M 697.5054,592.82014 465.72587,204.93024 M 707.92172,596.36463 471.85257,201.3197 M 718.33804,599.90911 477.97928,197.70917 M 728.75436,603.45359 484.10599,194.09864 M 739.17067,606.99808 490.23269,190.48811 M 749.58699,610.54256 496.3594,186.87758 m 263.64391,427.20947 -257.5172,-430.82 M 770.41963,617.63153 508.61281,179.65652 M 780.83595,621.17602 514.73952,176.04599 M 791.25226,624.7205 520.86622,172.43546 M 801.66858,628.26499 526.99293,168.82493 M 812.0849,631.80947 533.11964,165.21439 M 822.50122,635.35396 539.24634,161.60386 M 832.91753,638.89844 545.37305,157.99333 M 843.33385,642.44293 551.49975,154.3828 M 853.75017,645.98741 557.62646,150.77227 M 135.02424,401.41797 14.077207,457.9364 M 145.44056,404.96245 22.575164,451.6089 M 155.85688,408.50694 31.073121,445.2814 M 166.27319,412.05142 39.571078,438.95389 M 176.68951,415.59591 48.069034,432.62639 m 139.036796,-13.486 -130.538839,7.1585 M 197.52215,422.68488 65.064948,419.97139 M 207.93846,426.22936 73.562905,413.64388 M 218.35478,429.77385 82.060862,407.31638 M 228.7711,433.31833 90.558819,400.98888 M 239.18742,436.86282 99.056776,394.66138 M 249.60374,440.4073 107.55473,388.33387 m 152.46532,55.61792 -143.96736,-61.94542 m 154.38368,65.4899 -145.88572,-71.8174 M 280.85269,451.04075 133.0486,369.35137 M 291.26901,454.58524 141.54656,363.02386 M 301.68533,458.12972 150.04452,356.69636 M 312.10164,461.67421 158.54247,350.36886 M 322.51796,465.21869 167.04043,344.04136 M 332.93428,468.76318 175.53839,337.71386 M 343.3506,472.30766 184.03634,331.38635 M 353.76691,475.85215 192.5343,325.05885 M 364.18323,479.39663 201.03226,318.73135 M 374.59955,482.94112 209.53021,312.40385 M 385.01587,486.4856 218.02817,306.07634 M 395.43219,490.03009 226.52613,299.74884 M 405.8485,493.57457 235.02409,293.42134 M 416.26482,497.11906 243.52204,287.09384 M 426.68114,500.66354 252.02,280.76633 M 437.09746,504.20802 260.51796,274.43883 M 447.51377,507.75251 269.01591,268.11133 M 457.93009,511.29699 277.51387,261.78383 M 468.34641,514.84148 286.01183,255.45632 M 478.76273,518.38596 294.50978,249.12882 M 489.17905,521.93045 303.00774,242.80132 M 499.59536,525.47493 311.5057,236.47382 M 510.01168,529.01942 320.00365,230.14631 M 520.428,532.5639 328.50161,223.81881 M 530.84432,536.10839 336.99957,217.49131 M 541.26064,539.65287 345.49752,211.16381 M 551.67695,543.19736 353.99548,204.83631 M 562.09327,546.74184 362.49344,198.5088 M 572.50959,550.28632 370.99139,192.1813 M 582.92591,553.83081 379.48935,185.8538 M 593.34222,557.37529 387.98731,179.5263 M 603.75854,560.91978 396.48527,173.19879 M 614.17486,564.46426 404.98322,166.87129 m 219.60796,401.13746 -211.11,-407.46496 M 635.0075,571.55323 421.97914,154.21629 M 645.42381,575.09772 430.47709,147.88878 M 655.84013,578.6422 438.97505,141.56128 M 666.25645,582.18669 447.47301,135.23378 M 676.67277,585.73117 455.97096,128.90628 M 687.08908,589.27566 464.46892,122.57877 M 697.5054,592.82014 472.96688,116.25127 M 707.92172,596.36463 481.46483,109.92377 M 718.33804,599.90911 489.96279,103.59627 M 728.75436,603.45359 498.46075,97.268765 M 739.17067,606.99808 506.9587,90.941263 M 749.58699,610.54256 515.45666,84.613761 M 760.00331,614.08705 523.95462,78.286258 M 770.41963,617.63153 532.45258,71.958756 M 780.83595,621.17602 540.95053,65.631254 M 791.25226,624.7205 549.44849,59.303751 M 801.66858,628.26499 557.94645,52.976249 M 812.0849,631.80947 566.4444,46.648746 M 822.50122,635.35396 574.94236,40.321244 M 832.91753,638.89844 583.44032,33.993742 M 843.33385,642.44293 591.93827,27.666239 M 853.75017,645.98741 600.43623,21.338737 M 977.8261,31.987538 134.88374,399.89891 M 968.57962,41.198617 141.01045,396.28838 M 959.33314,50.409696 147.13715,392.67785 M 950.08665,59.620775 153.26386,389.06732 M 940.84017,68.831855 159.39056,385.45679 M 931.59369,78.042934 165.51727,381.84625 M 922.34721,87.254013 171.64398,378.23572 M 913.10073,96.465092 177.77068,374.62519 M 903.85425,105.67617 183.89739,371.01466 M 894.60776,114.88725 190.02409,367.40413 M 885.36128,124.09833 196.1508,363.7936 M 876.1148,133.30941 202.27751,360.18307 M 866.86832,142.52049 208.40421,356.57254 M 857.62184,151.73157 214.53092,352.96201 M 848.37536,160.94265 220.65763,349.35148 M 839.12887,170.15373 226.78433,345.74094 M 829.88239,179.3648 232.91104,342.13041 M 820.63591,188.57588 239.03774,338.51988 M 811.38943,197.78696 245.16445,334.90935 M 802.14295,206.99804 251.29116,331.29882 M 792.89647,216.20912 257.41786,327.68829 M 783.64998,225.4202 263.54457,324.07776 M 774.4035,234.63128 269.67127,320.46723 M 765.15702,243.84236 275.79798,316.8567 M 755.91054,253.05344 281.92469,313.24617 M 746.66406,262.26452 288.05139,309.63563 M 737.41757,271.4756 294.1781,306.0251 M 728.17109,280.68668 300.3048,302.41457 m 418.61981,-12.51682 -412.4931,8.90629 m 403.24662,0.30479 -397.11991,-3.91532 m 387.87343,13.1264 -381.74673,-16.73693 M 691.18517,317.53099 324.81163,287.97245 M 681.93868,326.74207 330.93833,284.36192 M 672.6922,335.95315 337.06504,280.75139 m 326.38068,64.41284 -320.25397,-68.02337 m 311.00749,77.23445 -304.88079,-80.84499 m 295.63431,90.05607 -289.5076,-93.6666 M 635.70628,372.79747 361.57187,266.30926 M 626.45979,382.00855 367.69857,262.69873 M 617.21331,391.21963 373.82528,259.0882 M 607.96683,400.4307 379.95198,255.47767 M 598.72035,409.64178 386.07869,251.86714 M 589.47387,418.85286 392.2054,248.25661 M 580.22739,428.06394 398.3321,244.64608 M 570.9809,437.27502 404.45881,241.03555 M 561.73442,446.4861 410.58551,237.42501 M 552.48794,455.69718 416.71222,233.81448 M 543.24146,464.90826 422.83893,230.20395 M 533.99498,474.11934 428.96563,226.59342 m 95.78286,256.737 -89.65615,-260.34753 M 515.50201,492.5415 441.21904,219.37236 m 65.03649,282.38022 -58.90978,-285.99075 m 49.6633,295.20182 -43.53659,-298.81235 m 34.29011,308.02343 -28.16341,-311.63396 m 18.91693,320.84504 -12.79022,-324.45557 m 3.54373,333.66665 2.58297,-337.27719 m -11.82945,346.48827 17.95616,-350.0988 m -27.20264,359.30988 33.32935,-362.92041 m -42.57583,372.13149 48.70253,-375.74202 m -57.94901,384.9531 64.07572,-388.56363 m -73.3222,397.77471 79.44891,-401.38524 m -88.6954,410.59632 94.8221,-414.20685 M 404.54423,603.07445 514.73952,176.04599 M 395.29775,612.28553 520.86622,172.43546 M 386.05127,621.4966 526.99293,168.82493 M 376.80479,630.70768 533.11964,165.21439 M 367.55831,639.91876 539.24634,161.60386 M 358.31182,649.12984 545.37305,157.99333 M 349.06534,658.34092 551.49975,154.3828 M 339.81886,667.552 557.62646,150.77227 M 977.8261,31.987538 14.077207,457.9364 M 968.57962,41.198617 22.575164,451.6089 M 959.33314,50.409696 31.073121,445.2814 M 950.08665,59.620775 39.571078,438.95389 M 940.84017,68.831855 48.069034,432.62639 M 931.59369,78.042934 56.566991,426.29889 M 922.34721,87.254013 65.064948,419.97139 M 913.10073,96.465092 73.562905,413.64388 M 903.85425,105.67617 82.060862,407.31638 M 894.60776,114.88725 90.558819,400.98888 M 885.36128,124.09833 99.056776,394.66138 M 876.1148,133.30941 107.55473,388.33387 M 866.86832,142.52049 116.05269,382.00637 M 857.62184,151.73157 124.55065,375.67887 M 848.37536,160.94265 133.0486,369.35137 M 839.12887,170.15373 141.54656,363.02386 M 829.88239,179.3648 150.04452,356.69636 M 820.63591,188.57588 158.54247,350.36886 m 652.84696,-152.5819 -644.349,146.2544 M 802.14295,206.99804 175.53839,337.71386 M 792.89647,216.20912 184.03634,331.38635 M 783.64998,225.4202 192.5343,325.05885 m 581.8692,-90.42757 -573.37124,84.10007 m 564.12476,-74.88899 -555.62681,68.56149 m 546.38033,-59.35041 -537.88237,53.0229 M 746.66406,262.26452 226.52613,299.74884 M 737.41757,271.4756 235.02409,293.42134 m 493.147,-12.73466 -484.64905,6.40716 M 718.92461,289.89775 252.02,280.76633 m 457.65813,18.3425 -449.16017,-24.67 m 439.91369,33.88108 -431.41574,-40.20858 m 422.16926,49.41966 -413.6713,-55.74716 M 681.93868,326.74207 286.01183,255.45632 M 672.6922,335.95315 294.50978,249.12882 M 663.44572,345.16423 303.00774,242.80132 M 654.19924,354.37531 311.5057,236.47382 M 644.95276,363.58639 320.00365,230.14631 M 635.70628,372.79747 328.50161,223.81881 M 626.45979,382.00855 336.99957,217.49131 M 617.21331,391.21963 345.49752,211.16381 M 607.96683,400.4307 353.99548,204.83631 M 598.72035,409.64178 362.49344,198.5088 M 589.47387,418.85286 370.99139,192.1813 M 580.22739,428.06394 379.48935,185.8538 M 570.9809,437.27502 387.98731,179.5263 M 561.73442,446.4861 396.48527,173.19879 M 552.48794,455.69718 404.98322,166.87129 M 543.24146,464.90826 413.48118,160.54379 M 533.99498,474.11934 421.97914,154.21629 M 524.74849,483.33042 430.47709,147.88878 M 515.50201,492.5415 438.97505,141.56128 m 67.28048,360.1913 -58.78252,-366.5188 m 49.53604,375.72987 -41.03809,-382.05737 m 31.79161,391.26845 -23.29365,-397.59596 m 14.04717,406.80704 -5.54921,-413.13454 m -3.69728,422.34562 12.19523,-428.67312 m -21.44171,437.8842 29.93967,-444.2117 M 450.77664,557.01905 498.46075,97.268765 M 441.53016,566.23013 506.9587,90.941263 M 432.28368,575.44121 515.45666,84.613761 M 423.0372,584.65229 523.95462,78.286258 M 413.79071,593.86337 532.45258,71.958756 M 404.54423,603.07445 540.95053,65.631254 M 395.29775,612.28553 549.44849,59.303751 M 386.05127,621.4966 557.94645,52.976249 M 376.80479,630.70768 566.4444,46.648746 M 367.55831,639.91876 574.94236,40.321244 M 358.31182,649.12984 583.44032,33.993742 M 349.06534,658.34092 591.93827,27.666239 M 339.81886,667.552 600.43623,21.338737 M 134.88374,399.89891 14.077207,457.9364 M 141.01045,396.28838 22.575164,451.6089 M 147.13715,392.67785 31.073121,445.2814 M 153.26386,389.06732 39.571078,438.95389 M 159.39056,385.45679 48.069034,432.62639 M 165.51727,381.84625 56.566991,426.29889 M 171.64398,378.23572 65.064948,419.97139 M 177.77068,374.62519 73.562905,413.64388 M 183.89739,371.01466 82.060862,407.31638 M 190.02409,367.40413 90.558819,400.98888 M 196.1508,363.7936 99.056776,394.66138 m 103.220734,-34.47831 -94.72278,28.1508 m 100.84948,-31.76133 -92.35152,25.43383 m 98.47823,-29.04436 -89.98027,22.71686 m 96.10698,-26.32739 -87.60903,19.99989 m 93.73573,-23.61043 -85.23777,17.28292 m 91.36448,-20.89345 -82.86652,14.56595 m 88.99322,-18.17648 -80.49527,11.84898 m 86.62198,-15.45951 -78.12402,9.13201 m 84.25073,-12.74254 -75.75277,6.41504 m 81.87947,-10.02557 -73.38152,3.69806 m 79.50823,-7.30859 -71.01027,0.98109 m 77.13697,-4.59162 -68.63901,-1.73588 m 74.76572,-1.87465 -66.26777,-4.45285 m 72.39448,0.84232 -63.89652,-7.16983 m 70.02322,3.55929 -61.52526,-9.88679 m 67.65197,6.27626 -59.15401,-12.60376 m 65.28071,8.99323 -56.78276,-15.32073 m 62.90947,11.7102 L 252.02,280.76633 m 60.53822,14.42718 -52.04026,-20.75468 m 58.16696,17.14415 -49.66901,-23.47165 m 55.79572,19.86112 -47.29776,-26.18862 m 53.42446,22.57809 -44.9265,-28.9056 m 51.05321,25.29507 -42.55526,-31.62257 m 48.68197,28.01204 -40.18401,-34.33954 m 46.31071,30.729 -37.81275,-37.0565 m 43.93946,33.44597 -35.44151,-39.77348 m 41.56822,36.16295 -33.07026,-42.49045 m 39.19696,38.87992 -30.699,-45.20742 m 36.82571,41.59689 -28.32776,-47.92439 m 34.45446,44.31386 -25.9565,-50.64136 m 32.08321,47.03083 -23.58525,-53.35834 m 29.71196,49.74781 -21.21401,-56.07531 m 27.34071,52.46478 -18.84275,-58.79228 m 24.96946,55.18175 -16.4715,-61.50925 m 22.5982,57.89871 -14.10024,-64.22622 m 20.22695,60.61569 -11.729,-66.94319 m 17.85571,63.33266 -9.35775,-69.66016 m 15.48445,66.04963 -6.98649,-72.37713 m 13.1132,68.7666 -4.61525,-75.09411 m 10.74195,71.48358 -2.24399,-77.81108 m 8.3707,74.20055 0.12726,-80.52805 m 5.99945,76.91752 2.4985,-83.24502 m 3.6282,79.63449 4.86976,-85.962 m 1.25695,82.35147 7.24101,-88.67897 m -1.11431,85.06843 9.61226,-91.39593 m -3.48555,87.7854 11.98351,-94.1129 m -5.8568,90.50237 14.35476,-96.829875 M 490.23269,190.48811 506.9587,90.941263 M 496.3594,186.87758 515.45666,84.613761 M 502.48611,183.26705 523.95462,78.286258 M 508.61281,179.65652 532.45258,71.958756 M 514.73952,176.04599 540.95053,65.631254 M 520.86622,172.43546 549.44849,59.303751 M 526.99293,168.82493 557.94645,52.976249 M 533.11964,165.21439 566.4444,46.648746 M 539.24634,161.60386 574.94236,40.321244 M 545.37305,157.99333 583.44032,33.993742 M 551.49975,154.3828 591.93827,27.666239 M 557.62646,150.77227 600.43623,21.338737" />
    <path
       id="path773"
       style="opacity:1;fill:none;fill-opacity:1;stroke:#ffffff;stroke-width:0.2;stroke-linecap:round;stroke-linejoin:round;stroke-miterlimit:0;stroke-dasharray:none;stroke-dashoffset:0.442205;paint-order:markers fill stroke"
       d="M 135.02424,401.41797 977.8261,31.987538 M 145.44056,404.96245 968.57962,41.198617 M 155.85688,408.50694 959.33314,50.409696 M 166.27319,412.05142 950.08665,59.620775 M 176.68951,415.59591 940.84017,68.831855 M 187.10583,419.14039 931.59369,78.042934 M 197.52215,422.68488 922.34721,87.254013 M 207.93846,426.22936 913.10073,96.465092 M 218.35478,429.77385 903.85425,105.67617 M 228.7711,433.31833 894.60776,114.88725 M 239.18742,436.86282 885.36128,124.09833 M 249.60374,440.4073 876.1148,133.30941 M 260.02005,443.95179 866.86832,142.52049 M 270.43637,447.49627 857.62184,151.73157 M 280.85269,451.04075 848.37536,160.94265 M 291.26901,454.58524 839.12887,170.15373 M 301.68533,458.12972 829.88239,179.3648 M 312.10164,461.67421 820.63591,188.57588 M 322.51796,465.21869 811.38943,197.78696 M 332.93428,468.76318 802.14295,206.99804 M 343.3506,472.30766 792.89647,216.20912 M 353.76691,475.85215 783.64998,225.4202 M 364.18323,479.39663 774.4035,234.63128 M 374.59955,482.94112 765.15702,243.84236 M 385.01587,486.4856 755.91054,253.05344 M 395.43219,490.03009 746.66406,262.26452 M 405.8485,493.57457 737.41757,271.4756 M 416.26482,497.11906 728.17109,280.68668 M 426.68114,500.66354 718.92461,289.89775 M 437.09746,504.20802 709.67813,299.10883 M 447.51377,507.75251 700.43165,308.31991 M 457.93009,511.29699 691.18517,317.53099 M 468.34641,514.84148 681.93868,326.74207 M 478.76273,518.38596 672.6922,335.95315 M 489.17905,521.93045 663.44572,345.16423 M 499.59536,525.47493 654.19924,354.37531 M 510.01168,529.01942 644.95276,363.58639 M 520.428,532.5639 635.70628,372.79747 M 530.84432,536.10839 626.45979,382.00855 M 541.26064,539.65287 617.21331,391.21963 M 551.67695,543.19736 607.96683,400.4307 m -45.87356,146.31114 36.62708,-137.10006 m -26.21076,140.64454 16.96428,-131.43346 m -6.54796,134.97795 -2.69852,-125.76687 M 593.34222,557.37529 570.9809,437.27502 M 603.75854,560.91978 561.73442,446.4861 M 614.17486,564.46426 552.48794,455.69718 M 624.59118,568.00875 543.24146,464.90826 M 635.0075,571.55323 533.99498,474.11934 M 645.42381,575.09772 524.74849,483.33042 M 655.84013,578.6422 515.50201,492.5415 M 666.25645,582.18669 506.25553,501.75258 M 676.67277,585.73117 497.00905,510.96365 M 687.08908,589.27566 487.76257,520.17473 M 697.5054,592.82014 478.51609,529.38581 M 707.92172,596.36463 469.2696,538.59689 M 718.33804,599.90911 460.02312,547.80797 M 728.75436,603.45359 450.77664,557.01905 M 739.17067,606.99808 441.53016,566.23013 M 749.58699,610.54256 432.28368,575.44121 M 760.00331,614.08705 423.0372,584.65229 M 770.41963,617.63153 413.79071,593.86337 M 780.83595,621.17602 404.54423,603.07445 M 791.25226,624.7205 395.29775,612.28553 m 406.37083,15.97946 -415.61731,-6.76839 m 426.03363,10.31287 -435.28011,-1.10179 m 445.69643,4.64628 -454.94291,4.5648 m 465.35922,-1.02032 -474.60571,10.2314 m 485.02203,-6.68691 -494.26851,15.89799 M 853.75017,645.98741 339.81886,667.552 m -204.79462,-266.13403 -0.1405,-1.51906 m 10.55682,5.06354 -4.43011,-8.67407 m 14.84643,12.21856 -8.71973,-15.82909 m 19.13604,19.37357 -13.00933,-22.9841 m 23.42565,26.52859 -17.29895,-30.13912 m 27.71527,33.6836 -21.58856,-37.29414 m 32.00488,40.83863 -25.87817,-44.44916 m 36.29448,47.99364 -30.16778,-51.60417 m 40.5841,55.14866 -34.45739,-58.75919 m 44.87371,62.30367 -38.74701,-65.9142 m 49.16333,69.45869 -43.03662,-73.06922 m 53.45294,76.6137 -47.32623,-80.22423 m 57.74254,83.76872 -51.61584,-87.37925 m 62.03216,90.92373 -55.90545,-94.53426 m 66.32177,98.07874 -60.19506,-101.68927 m 70.61138,105.23376 -64.48468,-108.8443 m 74.901,112.38878 -68.77429,-115.99931 m 79.1906,119.5438 -73.0639,-123.15433 M 322.51796,465.21869 245.16445,334.90935 M 332.93428,468.76318 251.29116,331.29882 M 343.3506,472.30766 257.41786,327.68829 M 353.76691,475.85215 263.54457,324.07776 M 364.18323,479.39663 269.67127,320.46723 M 374.59955,482.94112 275.79798,316.8567 M 385.01587,486.4856 281.92469,313.24617 M 395.43219,490.03009 288.05139,309.63563 M 405.8485,493.57457 294.1781,306.0251 M 416.26482,497.11906 300.3048,302.41457 M 426.68114,500.66354 306.43151,298.80404 M 437.09746,504.20802 312.55822,295.19351 M 447.51377,507.75251 318.68492,291.58298 M 457.93009,511.29699 324.81163,287.97245 M 468.34641,514.84148 330.93833,284.36192 M 478.76273,518.38596 337.06504,280.75139 M 489.17905,521.93045 343.19175,277.14086 M 499.59536,525.47493 349.31845,273.53032 M 510.01168,529.01942 355.44516,269.91979 M 520.428,532.5639 361.57187,266.30926 M 530.84432,536.10839 367.69857,262.69873 M 541.26064,539.65287 373.82528,259.0882 M 551.67695,543.19736 379.95198,255.47767 M 562.09327,546.74184 386.07869,251.86714 M 572.50959,550.28632 392.2054,248.25661 M 582.92591,553.83081 398.3321,244.64608 M 593.34222,557.37529 404.45881,241.03555 M 603.75854,560.91978 410.58551,237.42501 M 614.17486,564.46426 416.71222,233.81448 M 624.59118,568.00875 422.83893,230.20395 M 635.0075,571.55323 428.96563,226.59342 M 645.42381,575.09772 435.09234,222.98289 M 655.84013,578.6422 441.21904,219.37236 M 666.25645,582.18669 447.34575,215.76183 M 676.67277,585.73117 453.47246,212.1513 M 687.08908,589.27566 459.59916,208.54077 M 697.5054,592.82014 465.72587,204.93024 M 707.92172,596.36463 471.85257,201.3197 M 718.33804,599.90911 477.97928,197.70917 M 728.75436,603.45359 484.10599,194.09864 M 739.17067,606.99808 490.23269,190.48811 M 749.58699,610.54256 496.3594,186.87758 m 263.64391,427.20947 -257.5172,-430.82 M 770.41963,617.63153 508.61281,179.65652 M 780.83595,621.17602 514.73952,176.04599 M 791.25226,624.7205 520.86622,172.43546 M 801.66858,628.26499 526.99293,168.82493 M 812.0849,631.80947 533.11964,165.21439 M 822.50122,635.35396 539.24634,161.60386 M 832.91753,638.89844 545.37305,157.99333 M 843.33385,642.44293 551.49975,154.3828 M 853.75017,645.98741 557.62646,150.77227 M 135.02424,401.41797 14.077207,457.9364 M 145.44056,404.96245 22.575164,451.6089 M 155.85688,408.50694 31.073121,445.2814 M 166.27319,412.05142 39.571078,438.95389 M 176.68951,415.59591 48.069034,432.62639 m 139.036796,-13.486 -130.538839,7.1585 M 197.52215,422.68488 65.064948,419.97139 M 207.93846,426.22936 73.562905,413.64388 M 218.35478,429.77385 82.060862,407.31638 M 228.7711,433.31833 90.558819,400.98888 M 239.18742,436.86282 99.056776,394.66138 M 249.60374,440.4073 107.55473,388.33387 m 152.46532,55.61792 -143.96736,-61.94542 m 154.38368,65.4899 -145.88572,-71.8174 M 280.85269,451.04075 133.0486,369.35137 M 291.26901,454.58524 141.54656,363.02386 M 301.68533,458.12972 150.04452,356.69636 M 312.10164,461.67421 158.54247,350.36886 M 322.51796,465.21869 167.04043,344.04136 M 332.93428,468.76318 175.53839,337.71386 M 343.3506,472.30766 184.03634,331.38635 M 353.76691,475.85215 192.5343,325.05885 M 364.18323,479.39663 201.03226,318.73135 M 374.59955,482.94112 209.53021,312.40385 M 385.01587,486.4856 218.02817,306.07634 M 395.43219,490.03009 226.52613,299.74884 M 405.8485,493.57457 235.02409,293.42134 M 416.26482,497.11906 243.52204,287.09384 M 426.68114,500.66354 252.02,280.76633 M 437.09746,504.20802 260.51796,274.43883 M 447.51377,507.75251 269.01591,268.11133 M 457.93009,511.29699 277.51387,261.78383 M 468.34641,514.84148 286.01183,255.45632 M 478.76273,518.38596 294.50978,249.12882 M 489.17905,521.93045 303.00774,242.80132 M 499.59536,525.47493 311.5057,236.47382 M 510.01168,529.01942 320.00365,230.14631 M 520.428,532.5639 328.50161,223.81881 M 530.84432,536.10839 336.99957,217.49131 M 541.26064,539.65287 345.49752,211.16381 M 551.67695,543.19736 353.99548,204.83631 M 562.09327,546.74184 362.49344,198.5088 M 572.50959,550.28632 370.99139,192.1813 M 582.92591,553.83081 379.48935,185.8538 M 593.34222,557.37529 387.98731,179.5263 M 603.75854,560.91978 396.48527,173.19879 M 614.17486,564.46426 404.98322,166.87129 m 219.60796,401.13746 -211.11,-407.46496 M 635.0075,571.55323 421.97914,154.21629 M 645.42381,575.09772 430.47709,147.88878 M 655.84013,578.6422 438.97505,141.56128 M 666.25645,582.18669 447.47301,135.23378 M 676.67277,585.73117 455.97096,128.90628 M 687.08908,589.27566 464.46892,122.57877 M 697.5054,592.82014 472.96688,116.25127 M 707.92172,596.36463 481.46483,109.92377 M 718.33804,599.90911 489.96279,103.59627 M 728.75436,603.45359 498.46075,97.268765 M 739.17067,606.99808 506.9587,90.941263 M 749.58699,610.54256 515.45666,84.613761 M 760.00331,614.08705 523.95462,78.286258 M 770.41963,617.63153 532.45258,71.958756 M 780.83595,621.17602 540.95053,65.631254 M 791.25226,624.7205 549.44849,59.303751 M 801.66858,628.26499 557.94645,52.976249 M 812.0849,631.80947 566.4444,46.648746 M 822.50122,635.35396 574.94236,40.321244 M 832.91753,638.89844 583.44032,33.993742 M 843.33385,642.44293 591.93827,27.666239 M 853.75017,645.98741 600.43623,21.338737 M 977.8261,31.987538 134.88374,399.89891 M 968.57962,41.198617 141.01045,396.28838 M 959.33314,50.409696 147.13715,392.67785 M 950.08665,59.620775 153.26386,389.06732 M 940.84017,68.831855 159.39056,385.45679 M 931.59369,78.042934 165.51727,381.84625 M 922.34721,87.254013 171.64398,378.23572 M 913.10073,96.465092 177.77068,374.62519 M 903.85425,105.67617 183.89739,371.01466 M 894.60776,114.88725 190.02409,367.40413 M 885.36128,124.09833 196.1508,363.7936 M 876.1148,133.30941 202.27751,360.18307 M 866.86832,142.52049 208.40421,356.57254 M 857.62184,151.73157 214.53092,352.96201 M 848.37536,160.94265 220.65763,349.35148 M 839.12887,170.15373 226.78433,345.74094 M 829.88239,179.3648 232.91104,342.13041 M 820.63591,188.57588 239.03774,338.51988 M 811.38943,197.78696 245.16445,334.90935 M 802.14295,206.99804 251.29116,331.29882 M 792.89647,216.20912 257.41786,327.68829 M 783.64998,225.4202 263.54457,324.07776 M 774.4035,234.63128 269.67127,320.46723 M 765.15702,243.84236 275.79798,316.8567 M 755.91054,253.05344 281.92469,313.24617 M 746.66406,262.26452 288.05139,309.63563 M 737.41757,271.4756 294.1781,306.0251 M 728.17109,280.68668 300.3048,302.41457 m 418.61981,-12.51682 -412.4931,8.90629 m 403.24662,0.30479 -397.11991,-3.91532 m 387.87343,13.1264 -381.74673,-16.73693 M 691.18517,317.53099 324.81163,287.97245 M 681.93868,326.74207 330.93833,284.36192 M 672.6922,335.95315 337.06504,280.75139 m 326.38068,64.41284 -320.25397,-68.02337 m 311.00749,77.23445 -304.88079,-80.84499 m 295.63431,90.05607 -289.5076,-93.6666 M 635.70628,372.79747 361.57187,266.30926 M 626.45979,382.00855 367.69857,262.69873 M 617.21331,391.21963 373.82528,259.0882 M 607.96683,400.4307 379.95198,255.47767 M 598.72035,409.64178 386.07869,251.86714 M 589.47387,418.85286 392.2054,248.25661 M 580.22739,428.06394 398.3321,244.64608 M 570.9809,437.27502 404.45881,241.03555 M 561.73442,446.4861 410.58551,237.42501 M 552.48794,455.69718 416.71222,233.81448 M 543.24146,464.90826 422.83893,230.20395 M 533.99498,474.11934 428.96563,226.59342 m 95.78286,256.737 -89.65615,-260.34753 M 515.50201,492.5415 441.21904,219.37236 m 65.03649,282.38022 -58.90978,-285.99075 m 49.6633,295.20182 -43.53659,-298.81235 m 34.29011,308.02343 -28.16341,-311.63396 m 18.91693,320.84504 -12.79022,-324.45557 m 3.54373,333.66665 2.58297,-337.27719 m -11.82945,346.48827 17.95616,-350.0988 m -27.20264,359.30988 33.32935,-362.92041 m -42.57583,372.13149 48.70253,-375.74202 m -57.94901,384.9531 64.07572,-388.56363 m -73.3222,397.77471 79.44891,-401.38524 m -88.6954,410.59632 94.8221,-414.20685 M 404.54423,603.07445 514.73952,176.04599 M 395.29775,612.28553 520.86622,172.43546 M 386.05127,621.4966 526.99293,168.82493 M 376.80479,630.70768 533.11964,165.21439 M 367.55831,639.91876 539.24634,161.60386 M 358.31182,649.12984 545.37305,157.99333 M 349.06534,658.34092 551.49975,154.3828 M 339.81886,667.552 557.62646,150.77227 M 977.8261,31.987538 14.077207,457.9364 M 968.57962,41.198617 22.575164,451.6089 M 959.33314,50.409696 31.073121,445.2814 M 950.08665,59.620775 39.571078,438.95389 M 940.84017,68.831855 48.069034,432.62639 M 931.59369,78.042934 56.566991,426.29889 M 922.34721,87.254013 65.064948,419.97139 M 913.10073,96.465092 73.562905,413.64388 M 903.85425,105.67617 82.060862,407.31638 M 894.60776,114.88725 90.558819,400.98888 M 885.36128,124.09833 99.056776,394.66138 M 876.1148,133.30941 107.55473,388.33387 M 866.86832,142.52049 116.05269,382.00637 M 857.62184,151.73157 124.55065,375.67887 M 848.37536,160.94265 133.0486,369.35137 M 839.12887,170.15373 141.54656,363.02386 M 829.88239,179.3648 150.04452,356.69636 M 820.63591,188.57588 158.54247,350.36886 m 652.84696,-152.5819 -644.349,146.2544 M 802.14295,206.99804 175.53839,337.71386 M 792.89647,216.20912 184.03634,331.38635 M 783.64998,225.4202 192.5343,325.05885 m 581.8692,-90.42757 -573.37124,84.10007 m 564.12476,-74.88899 -555.62681,68.56149 m 546.38033,-59.35041 -537.88237,53.0229 M 746.66406,262.26452 226.52613,299.74884 M 737.41757,271.4756 235.02409,293.42134 m 493.147,-12.73466 -484.64905,6.40716 M 718.92461,289.89775 252.02,280.76633 m 457.65813,18.3425 -449.16017,-24.67 m 439.91369,33.88108 -431.41574,-40.20858 m 422.16926,49.41966 -413.6713,-55.74716 M 681.93868,326.74207 286.01183,255.45632 M 672.6922,335.95315 294.50978,249.12882 M 663.44572,345.16423 303.00774,242.80132 M 654.19924,354.37531 311.5057,236.47382 M 644.95276,363.58639 320.00365,230.14631 M 635.70628,372.79747 328.50161,223.81881 M 626.45979,382.00855 336.99957,217.49131 M 617.21331,391.21963 345.49752,211.16381 M 607.96683,400.4307 353.99548,204.83631 M 598.72035,409.64178 362.49344,198.5088 M 589.47387,418.85286 370.99139,192.1813 M 580.22739,428.06394 379.48935,185.8538 M 570.9809,437.27502 387.98731,179.5263 M 561.73442,446.4861 396.48527,173.19879 M 552.48794,455.69718 404.98322,166.87129 M 543.24146,464.90826 413.48118,160.54379 M 533.99498,474.11934 421.97914,154.21629 M 524.74849,483.33042 430.47709,147.88878 M 515.50201,492.5415 438.97505,141.56128 m 67.28048,360.1913 -58.78252,-366.5188 m 49.53604,375.72987 -41.03809,-382.05737 m 31.79161,391.26845 -23.29365,-397.59596 m 14.04717,406.80704 -5.54921,-413.13454 m -3.69728,422.34562 12.19523,-428.67312 m -21.44171,437.8842 29.93967,-444.2117 M 450.77664,557.01905 498.46075,97.268765 M 441.53016,566.23013 506.9587,90.941263 M 432.28368,575.44121 515.45666,84.613761 M 423.0372,584.65229 523.95462,78.286258 M 413.79071,593.86337 532.45258,71.958756 M 404.54423,603.07445 540.95053,65.631254 M 395.29775,612.28553 549.44849,59.303751 M 386.05127,621.4966 557.94645,52.976249 M 376.80479,630.70768 566.4444,46.648746 M 367.55831,639.91876 574.94236,40.321244 M 358.31182,649.12984 583.44032,33.993742 M 349.06534,658.34092 591.93827,27.666239 M 339.81886,667.552 600.43623,21.338737 M 134.88374,399.89891 14.077207,457.9364 M 141.01045,396.28838 22.575164,451.6089 M 147.13715,392.67785 31.073121,445.2814 M 153.26386,389.06732 39.571078,438.95389 M 159.39056,385.45679 48.069034,432.62639 M 165.51727,381.84625 56.566991,426.29889 M 171.64398,378.23572 65.064948,419.97139 M 177.77068,374.62519 73.562905,413.64388 M 183.89739,371.01466 82.060862,407.31638 M 190.02409,367.40413 90.558819,400.98888 M 196.1508,363.7936 99.056776,394.66138 m 103.220734,-34.47831 -94.72278,28.1508 m 100.84948,-31.76133 -92.35152,25.43383 m 98.47823,-29.04436 -89.98027,22.71686 m 96.10698,-26.32739 -87.60903,19.99989 m 93.73573,-23.61043 -85.23777,17.28292 m 91.36448,-20.89345 -82.86652,14.56595 m 88.99322,-18.17648 -80.49527,11.84898 m 86.62198,-15.45951 -78.12402,9.13201 m 84.25073,-12.74254 -75.75277,6.41504 m 81.87947,-10.02557 -73.38152,3.69806 m 79.50823,-7.30859 -71.01027,0.98109 m 77.13697,-4.59162 -68.63901,-1.73588 m 74.76572,-1.87465 -66.26777,-4.45285 m 72.39448,0.84232 -63.89652,-7.16983 m 70.02322,3.55929 -61.52526,-9.88679 m 67.65197,6.27626 -59.15401,-12.60376 m 65.28071,8.99323 -56.78276,-15.32073 m 62.90947,11.7102 L 252.02,280.76633 m 60.53822,14.42718 -52.04026,-20.75468 m 58.16696,17.14415 -49.66901,-23.47165 m 55.79572,19.86112 -47.29776,-26.18862 m 53.42446,22.57809 -44.9265,-28.9056 m 51.05321,25.29507 -42.55526,-31.62257 m 48.68197,28.01204 -40.18401,-34.33954 m 46.31071,30.729 -37.81275,-37.0565 m 43.93946,33.44597 -35.44151,-39.77348 m 41.56822,36.16295 -33.07026,-42.49045 m 39.19696,38.87992 -30.699,-45.20742 m 36.82571,41.59689 -28.32776,-47.92439 m 34.45446,44.31386 -25.9565,-50.64136 m 32.08321,47.03083 -23.58525,-53.35834 m 29.71196,49.74781 -21.21401,-56.07531 m 27.34071,52.46478 -18.84275,-58.79228 m 24.96946,55.18175 -16.4715,-61.50925 m 22.5982,57.89871 -14.10024,-64.22622 m 20.22695,60.61569 -11.729,-66.94319 m 17.85571,63.33266 -9.35775,-69.66016 m 15.48445,66.04963 -6.98649,-72.37713 m 13.1132,68.7666 -4.61525,-75.09411 m 10.74195,71.48358 -2.24399,-77.81108 m 8.3707,74.20055 0.12726,-80.52805 m 5.99945,76.91752 2.4985,-83.24502 m 3.6282,79.63449 4.86976,-85.962 m 1.25695,82.35147 7.24101,-88.67897 m -1.11431,85.06843 9.61226,-91.39593 m -3.48555,87.7854 11.98351,-94.1129 m -5.8568,90.50237 14.35476,-96.829875 M 490.23269,190.48811 506.9587,90.941263 M 496.3594,186.87758 515.45666,84.613761 M 502.48611,183.26705 523.95462,78.286258 M 508.61281,179.65652 532.45258,71.958756 M 514.73952,176.04599 540.95053,65.631254 M 520.86622,172.43546 549.44849,59.303751 M 526.99293,168.82493 557.94645,52.976249 M 533.11964,165.21439 566.4444,46.648746 M 539.24634,161.60386 574.94236,40.321244 M 545.37305,157.99333 583.44032,33.993742 M 551.49975,154.3828 591.93827,27.666239 M 557.62646,150.77227 600.43623,21.338737"
       transform="matrix(0.4652709,0.24942601,-0.14201525,0.89076907,300.55407,-76.9465)" />
  </g>
</svg>
