<?xml version="1.0" encoding="UTF-8" standalone="no"?>
<!-- Created with Inkscape (http://www.inkscape.org/) -->

<svg
   width="109.91072mm"
   height="148.90532mm"
   viewBox="0 0 109.91072 148.90532"
   version="1.1"
   id="svg1"
   xmlns="http://www.w3.org/2000/svg"
   xmlns:svg="http://www.w3.org/2000/svg">
  <defs
     id="defs1" />
  <g
     id="layer1"
     transform="translate(-25.207855,-45.630251)">
    <rect
       style="fill:#000000;stroke:#000000;stroke-width:5.60001;stroke-linecap:round;stroke-linejoin:round;stroke-miterlimit:0;stroke-dashoffset:0.442205;paint-order:markers fill stroke"
       id="rect1"
       width="8.1689587"
       height="143.30531"
       x="28.00786"
       y="48.430256"
       ry="4.6227522" />
    <path
       id="rect2"
       style="fill:#000000;stroke:#000000;stroke-width:5.6;stroke-linecap:round;stroke-linejoin:round;stroke-miterlimit:0;stroke-dashoffset:0.442205;paint-order:markers fill stroke"
       d="m 42.023853,55.380342 c -5.817118,19.849628 -5.826778,36.784619 -0.02898,50.804968 2.040381,-1.58001 4.667563,-2.16869 7.217017,-2.47115 3.477216,-0.41438 6.997177,-0.27227 10.484326,0.0156 1.378211,0.11372 2.753622,0.25193 4.126646,0.41046 7.450922,0.86074 14.830494,2.32174 22.205774,3.7178 2e-6,0 3e-6,0 4e-6,0 0.334786,0.0634 0.669568,0.12694 1.004354,0.19065 2e-6,0 3e-6,0 4e-6,0 7.301161,1.38983 14.605192,2.84682 21.988862,3.67324 0.95764,0.10717 1.91667,0.20368 2.87725,0.288 2.36847,0.20777 4.75342,0.35106 7.12531,0.26201 0.92617,-0.0348 1.85027,-0.10509 2.77054,-0.22084 1.03496,-0.1311 2.09034,-0.31543 3.09051,-0.62338 0.96719,-0.29784 1.85525,-1.12392 2.4092,-2.1885 0.554,-1.06467 0.68142,-2.15934 0.6559,-3.10952 -0.36909,-13.736489 1.05472,-28.861165 4.27141,-45.374025 0.16107,-0.826706 0.13048,-1.474813 -0.21038,-1.790921 -0.33507,-0.310741 -0.94084,-0.258245 -1.60892,0.07516 -1.32392,0.660848 -2.69779,1.215859 -4.10253,1.668126 -0.93123,0.300615 -1.87679,0.557117 -2.83105,0.770448 -2.44423,0.546462 -4.94046,0.822429 -7.44398,0.908513 -1.01546,0.03497 -2.03231,0.03874 -3.04756,0.01671 -7.82893,-0.169855 -15.553697,-1.761567 -23.213368,-3.403531 -0.351179,-0.0753 -0.702322,-0.150922 -1.053442,-0.226789 -2e-6,0 -3e-6,0 -4e-6,-10e-7 -7.736773,-1.671504 -15.462596,-3.460016 -23.319127,-4.421228 -1.447789,-0.177219 -2.903567,-0.325881 -4.362896,-0.436885 -3.692644,-0.280734 -7.406195,-0.320792 -11.068851,0.02689 -2.685936,0.256342 -5.340481,0.716601 -7.936021,1.438165 z M 87.6314,59.770655 c 0.248225,1.070705 0.497072,2.138818 0.747638,3.208711 0.27118,1.14655 0.545353,2.291635 0.822541,3.437201 1.01819,4.253904 2.003112,8.245903 3.073916,12.49065 6.475757,1.261475 13.217465,2.377968 20.246995,2.703545 0.10869,0.0049 0.21753,0.0095 0.32653,0.01371 -0.11296,0.06289 -0.22582,0.125422 -0.33857,0.187608 -5.75665,3.214026 -11.89317,6.077642 -17.212424,8.582334 1.675569,6.166815 3.449735,12.756496 4.835974,18.842506 -3.643222,-3.5292 -9.047487,-8.64428 -12.690711,-12.173474 0.0054,0.0051 -1.013071,-0.961422 -1.007717,-0.956337 -0.01399,-0.01352 -0.909648,-0.879664 -0.923638,-0.893183 -5.326297,2.809834 -10.14504,5.473424 -15.334965,8.555494 2.122533,-5.837696 4.168971,-11.346018 6.418401,-17.078598 -3.94395,-3.701301 -8.001487,-7.451716 -11.963907,-10.869977 -0.961785,-0.816806 -1.935642,-1.640317 -2.895731,-2.444372 0.984285,0.09383 1.973209,0.1965 2.965776,0.305324 5.286342,0.652543 10.580939,1.690226 15.920912,2.819446 2.264371,-5.685841 4.554807,-11.127576 7.00898,-16.730587 z" />
  </g>
</svg>
