<?xml version="1.0" encoding="UTF-8" standalone="no"?>
<!-- Created with Inkscape (http://www.inkscape.org/) -->

<svg
   width="210mm"
   height="297mm"
   viewBox="0 0 210 297"
   version="1.1"
   id="svg1"
   inkscape:version="1.3.2 (091e20e, 2023-11-25, custom)"
   sodipodi:docname="shopingCart.svg"
   xmlns:inkscape="http://www.inkscape.org/namespaces/inkscape"
   xmlns:sodipodi="http://sodipodi.sourceforge.net/DTD/sodipodi-0.dtd"
   xmlns="http://www.w3.org/2000/svg"
   xmlns:svg="http://www.w3.org/2000/svg">
  <sodipodi:namedview
     id="namedview1"
     pagecolor="#ffffff"
     bordercolor="#000000"
     borderopacity="0.25"
     inkscape:showpageshadow="2"
     inkscape:pageopacity="0.0"
     inkscape:pagecheckerboard="0"
     inkscape:deskcolor="#d1d1d1"
     inkscape:document-units="mm"
     inkscape:zoom="0.64126689"
     inkscape:cx="369.58091"
     inkscape:cy="530.98017"
     inkscape:window-width="1366"
     inkscape:window-height="705"
     inkscape:window-x="-8"
     inkscape:window-y="-8"
     inkscape:window-maximized="1"
     inkscape:current-layer="layer1" />
  <defs
     id="defs1">
    <inkscape:path-effect
       effect="fillet_chamfer"
       id="path-effect2"
       is_visible="true"
       lpeversion="1"
       nodesatellites_param="F,0,0,1,0,0,0,1 @ F,0,0,1,0,0,0,1 @ F,0,0,1,0,10.939061,0,1 @ F,0,0,1,0,0,0,1"
       radius="0"
       unit="px"
       method="auto"
       mode="F"
       chamfer_steps="1"
       flexible="false"
       use_knot_distance="true"
       apply_no_radius="true"
       apply_with_radius="true"
       only_selected="false"
       hide_knots="false" />
    <inkscape:path-effect
       effect="fillet_chamfer"
       id="path-effect1"
       is_visible="true"
       lpeversion="1"
       nodesatellites_param="F,0,0,1,0,0,0,1 @ F,0,0,1,0,1.8012094,0,1 @ F,0,0,1,0,0,0,1 @ F,0,0,1,0,0,0,1"
       radius="0"
       unit="px"
       method="auto"
       mode="F"
       chamfer_steps="1"
       flexible="false"
       use_knot_distance="true"
       apply_no_radius="true"
       apply_with_radius="true"
       only_selected="false"
       hide_knots="false" />
  </defs>
  <g
     inkscape:label="Layer 1"
     inkscape:groupmode="layer"
     id="layer1">
    <path
       id="path1"
       style="color:#000000;fill:#000000;stroke-linecap:round;stroke-linejoin:round;stroke-miterlimit:0;stroke-dashoffset:0.442205;-inkscape-stroke:none;paint-order:markers fill stroke"
       d="M 12.837976 82.341744 A 8.1000004 8.1000004 0 0 0 4.736145 90.441508 A 8.1000004 8.1000004 0 0 0 12.837976 98.542822 L 49.216634 98.542822 L 71.589945 182.03902 C 73.709721 189.95013 79.98727 195.94558 87.673718 197.91505 A 13.126996 13.475961 0 0 0 86.480509 203.52711 A 13.126996 13.475961 0 0 0 99.607357 217.00278 A 13.126996 13.475961 0 0 0 112.7342 203.52711 A 13.126996 13.475961 0 0 0 111.82522 198.60958 L 140.72371 198.60958 A 13.126996 13.475961 0 0 0 139.78475 203.52711 A 13.126996 13.475961 0 0 0 152.9116 217.00278 A 13.126996 13.475961 0 0 0 166.03844 203.52711 A 13.126996 13.475961 0 0 0 165.12946 198.60958 L 166.88077 198.60958 A 8.1000004 8.1000004 0 0 0 174.98053 190.50982 A 8.1000004 8.1000004 0 0 0 166.88077 182.41005 L 93.183459 182.41005 C 90.358058 182.41005 87.969354 180.57667 87.238086 177.84754 L 86.94198 176.74218 L 183.29941 158.77067 L 183.86165 106.15631 A 1.7799461 1.978529 0 0 0 182.08191 104.15437 L 67.492004 104.15437 L 63.256087 88.345512 A 8.1008104 8.1008104 0 0 0 55.431759 82.341744 L 12.837976 82.341744 z " />
  </g>
</svg>
