<?xml version="1.0" encoding="UTF-8" standalone="no"?>
<!-- Created with Inkscape (http://www.inkscape.org/) -->

<svg
   width="145.3136mm"
   height="117.25mm"
   viewBox="0 0 145.3136 117.25"
   version="1.1"
   id="svg1"
   xml:space="preserve"
   xmlns="http://www.w3.org/2000/svg"
   xmlns:svg="http://www.w3.org/2000/svg"><defs
     id="defs1" /><g
     id="layer1"
     transform="translate(-32.34324,-51.590067)"><path
       style="fill:#000000;stroke:#000000;stroke-width:0.7;stroke-linecap:round;stroke-linejoin:round;stroke-miterlimit:0;stroke-dasharray:none;stroke-dashoffset:0.442205;paint-order:markers fill stroke"
       d="m 42.909852,56.938071 c 16.484618,19.886854 37.227546,29.127932 60.857718,31.150901 -2.96894,-47.066415 46.79268,-38.850233 49.71766,-26.818656 6.61159,-1.521199 13.05512,-4.05074 19.39196,-7.220408 -1.33941,6.499079 -6.3588,11.280831 -11.75895,15.884898 5.73429,-0.429865 10.99738,-2.273342 16.18866,-4.332245 -3.78731,5.693687 -8.82975,10.670154 -14.53828,15.266003 -1.57768,41.964856 -18.18276,54.910706 -24.96199,64.158476 -47.166117,42.48086 -95.444302,15.13866 -105.113542,10.93376 15.563929,0.63925 29.422579,-1.26084 43.636935,-12.37784 -10.952778,-2.37491 -21.66995,-5.31528 -27.231252,-20.62973 4.164127,0.28143 9.429915,1.09289 12.584139,-0.72204 C 48.939291,117.93127 39.856016,109.76711 38.783902,93.246407 45.957553,95.976336 49.772585,96.777063 51.57434,96.13457 34.601308,83.249184 38.829539,65.041262 42.909852,56.938071 Z"
       id="path1" /></g></svg>
